<?xml version="1.0" encoding="utf-8"?>
<svg width="650.76001mm" height="573.22198mm" viewBox="0 0 650.76001 573.22198" version="1.1" id="svg8" xmlns="http://www.w3.org/2000/svg">
  <defs id="defs2"/>
  <g id="layer1" transform="translate(0,276.22206)">
    <path style="fill:#000000;fill-rule:nonzero;stroke:none;stroke-width:1.69731975" d="M 224.965 -73.611 C 229.638 -73.599 233.665 -69.307 233.764 -66.03 C 233.665 -65.327 233.824 -63.548 235.834 -64.609 C 238.039 -65.625 245.151 -69.347 245.151 -69.347 C 245.151 -69.347 248.814 -70.372 248.775 -66.03 C 248.815 -62.066 245.089 -60.656 245.151 -58.45 C 245.091 -56.65 247.276 -56.206 248.257 -56.081 C 249.218 -55.91 330.321 -50.644 332.626 -50.396 C 358.121 -48.825 371.622 -47.568 396.809 -49.922 C 401.457 -50.494 427.383 -52.128 434.076 -52.291 C 449.575 -52.128 457.875 -40.173 459.44 -31.918 C 463.356 -8.668 463.518 -12.968 464.098 10.249 C 463.858 11.511 463.68 12.616 465.134 13.565 C 469.568 17.052 472.35 18.832 472.38 25.41 C 472.347 27.893 468.947 42.872 468.757 46.257 C 467.893 45.171 464.41 40.797 463.581 40.097 C 463.113 39.758 462.95 39.387 463.063 38.676 C 463.275 38.202 464.084 36.569 464.098 33.464 C 464.085 25.148 458.332 25.963 458.405 18.777 C 458.332 16.99 459.711 16.546 459.44 11.67 C 458.754 -2.111 456.793 -20.684 453.229 -34.287 C 453.158 -35.104 452.881 -35.107 452.711 -35.234 C 452.256 -35.107 452.07 -34.698 452.193 -34.287 C 452.387 -27.842 453.083 10.531 450.641 17.829 C 450.23 19.018 449.474 22.38 451.158 24.462 C 452.499 26.731 456.063 30.292 456.334 30.622 C 456.929 31.279 458.116 32.367 457.369 35.833 C 453.542 49.637 452.869 63.569 454.264 77.053 C 454.12 78.445 453.958 79.285 453.229 79.895 C 452.741 80.176 452.175 80.621 451.676 80.843 C 451.365 80.993 449.907 81.288 450.123 82.738 C 450.23 84.18 450.718 87.739 451.158 88.423 C 451.125 89.002 451.405 90.152 450.123 90.318 C 444.789 91.908 435.457 92.945 430.453 92.687 C 429.49 92.675 428.356 92.227 429.418 90.792 C 430.836 87.686 431.561 87.19 434.076 85.107 C 435.12 84.18 440.103 77.134 440.288 65.682 C 440.103 54.442 436.295 45.394 431.488 38.676 C 425.49 46.001 419.124 61.696 419.583 73.736 C 419.846 74.985 419.403 76.245 417.513 76.579 C 415.676 76.912 414.945 77.06 414.407 78.948 C 413.061 81.732 413.123 82.666 413.372 84.633 C 413.123 85.366 413.163 85.979 411.819 86.054 C 404.697 86.85 402.347 86.924 393.185 86.054 C 392.496 86.06 392.121 85.31 393.185 84.633 C 398.635 80.009 409.722 68.181 409.749 56.206 C 409.722 53.329 409.641 48.288 405.608 48.152 C 402.024 48.288 402.631 52.217 400.432 52.416 C 398.662 52.217 398.581 48.214 394.738 48.152 C 391.125 48.214 391.247 52.217 389.045 52.416 C 387.278 52.217 386.548 48.546 386.456 47.678 C 385.901 46.914 385.616 46.471 384.386 46.257 C 379.767 44.015 375.4 39.927 373.516 36.307 C 372.897 35.346 372.371 34.567 369.375 34.886 C 353.717 36.072 336.582 36.606 321.238 34.412 C 317.433 33.642 315.961 35.466 316.062 37.728 C 315.737 38.943 315.737 51.252 316.062 52.416 C 315.899 53.329 315.737 55.258 315.027 56.206 C 313.389 59.202 311.524 71.09 311.404 75.631 C 311.524 76.617 311.646 77.691 310.368 78.474 C 308.812 79.101 308 79.582 307.78 81.316 C 307.677 82.846 307.394 85.774 307.263 86.528 C 307.31 86.814 307.434 88.001 305.192 88.423 C 302.259 89.644 292.84 90.855 290.699 90.792 C 289.366 90.855 289.205 90.04 290.182 88.897 C 290.739 88.04 293.02 85.258 294.323 84.159 C 294.956 83.959 295.184 83.558 295.875 81.79 C 299.546 72.076 301.762 58.687 297.946 48.625 C 297.698 47.939 297.656 47.286 296.911 47.204 C 296.252 47.286 296.016 47.917 295.875 48.625 C 295.725 48.805 292.89 58.039 292.77 58.575 C 292.73 59.077 292.567 59.632 292.252 59.996 C 287.196 63.847 285.269 79.596 285.006 80.843 C 285.167 82.054 284.952 82.994 283.453 83.685 C 282.033 84.379 281.059 84.625 280.347 85.581 C 279.98 86.801 278.9 89.816 278.794 90.792 C 278.792 91.893 278.685 92.585 277.242 93.161 C 273.848 94.509 266.353 94.617 263.267 94.109 C 261.994 94.217 261.669 93.722 262.232 92.687 C 262.99 91.033 265.409 87.438 267.407 86.054 C 268.637 85.467 269.772 84.231 270.513 83.212 C 273.931 77.702 278.873 69.051 278.794 61.418 C 278.873 58.446 278.387 54.665 278.277 53.363 C 277.902 51.699 277.415 44.949 277.242 43.414 C 277.415 42.133 277.368 38.968 273.101 38.676 C 262.83 38.35 257.772 24.379 257.056 22.093 C 253.876 7.253 242.267 -9.883 234.281 -16.283 C 229.994 -19.821 228.368 -20.212 221.859 -20.547 C 219.405 -20.979 201.5 -22.387 200.637 -22.442 C 199.554 -22.387 199.124 -22.412 198.049 -22.916 C 197.072 -23.305 194.155 -24.292 192.355 -24.338 C 190.589 -24.295 189.02 -23.748 187.697 -23.864 C 185.995 -23.748 184.105 -24.887 183.038 -25.759 C 182.486 -27.061 181.836 -27.804 180.968 -28.128 C 179.676 -28.594 178.49 -29.581 178.38 -30.497 C 178.489 -31.459 179.028 -32.003 179.933 -32.392 C 180.326 -33.093 208.79 -55.984 209.436 -56.555 C 210.25 -57.466 214.704 -61.101 215.13 -61.293 C 216.002 -61.843 217.053 -62.473 217.2 -63.188 C 217.054 -63.955 216.325 -64.365 215.13 -64.135 C 214.302 -64.365 213.53 -63.991 212.024 -64.135 C 203.834 -63.991 197.517 -68.974 196.496 -69.821 C 196.192 -70.185 195.546 -70.742 195.461 -71.242 C 195.546 -72.15 196.235 -72.669 197.014 -72.664 C 197.61 -72.67 202.389 -70.89 208.919 -70.768 C 218.393 -70.89 219.2 -73.598 224.965 -73.611 L 224.965 -73.611 Z" id="path15-7"/>
  </g>
</svg>