<?xml version="1.0" encoding="utf-8"?>
<svg width="650.76001mm" height="573.22198mm" viewBox="0 0 650.76001 573.22197" version="1.1" id="svg8" xmlns="http://www.w3.org/2000/svg">
  <defs id="defs2"/>
  <g id="layer1" transform="translate(-113.2,338.42206)">
    <g transform="matrix(1, 0, 0, 1, 0.000061, -74.311005)">
      <path style="opacity:1;fill:#000000;fill-opacity:1;fill-rule:nonzero;stroke:none;stroke-width:1.04481709;stroke-linecap:butt;stroke-linejoin:miter;stroke-miterlimit:10;stroke-dasharray:none;stroke-opacity:1;paint-order:stroke fill markers" d="m 289.38005,140.1999 -7.60005,7.60005 h 23.69984 l 3.80029,-7.60005 z m 26.50019,0 -3.80029,7.60005 h 21.89996 l 3.00033,-7.60005 z m 27.6996,0 -2.99982,7.60005 h 22.00021 l 2.39985,-7.60005 z m 28.00036,0 -2.40037,7.60005 h 21.89995 l 1.80041,-7.60005 z m 27.89959,0 -1.79989,7.60005 h 19.90007 l 1.39992,-7.60005 z m 26.10021,0 -1.39991,7.60005 h 28.79979 l -1.39992,-7.60005 z m 32.60008,0 1.39991,7.60005 h 19.90008 l -1.79989,-7.60005 z m 26.0997,0 1.8004,7.60005 h 21.89996 l -2.40037,-7.60005 z m 27.9001,0 2.40037,7.60005 h 21.99969 l -2.99981,-7.60005 z m 28.00036,0 2.99982,7.60005 H 565.08 l -3.79976,-7.60005 z m 27.69961,0 3.80026,7.60005 h 23.69986 l -7.6,-7.60005 z" id="rect21489"/>
      <circle style="opacity:1;fill:#000000;fill-opacity:1;fill-rule:nonzero;stroke:none;stroke-width:0.53603351;stroke-linecap:butt;stroke-linejoin:miter;stroke-miterlimit:10;stroke-dasharray:none;stroke-opacity:1;paint-order:stroke fill markers" id="path22907" cx="423.28003" cy="-86.700096" r="16.1"/>
      <path style="opacity:1;fill:#000000;fill-opacity:1;fill-rule:nonzero;stroke:none;stroke-width:0.92387342;stroke-linecap:butt;stroke-linejoin:miter;stroke-miterlimit:10;stroke-dasharray:none;stroke-opacity:1;paint-order:stroke fill markers" d="m 321.92225,90.399834 -5.94227,7.600061 h 15.2001 l 2.59985,-7.600061 z m 18.45779,0 -2.59984,7.600061 h 16.20004 l 1.99988,-7.600061 z m 22.2002,0 -2.0004,7.600061 h 17.19998 l 1.60042,-7.600061 z m 23.3996,0 -1.5999,7.600061 h 17.19998 l 1.19993,-7.600061 z m 23.40012,0 -1.19992,7.600061 h 16.20004 l 0.79995,-7.600061 z m 22.40019,0 -0.79996,7.600061 h 15.19959 l -0.79995,-7.600061 z m 20.1998,0 0.79995,7.600061 h 16.20004 l -1.19992,-7.600061 z m 22.40018,0 1.19993,7.600061 h 17.19998 l -1.5999,-7.600061 z m 23.40012,0 1.5999,7.600061 h 17.19999 l -2.0004,-7.600061 z m 23.39961,0 2.00039,7.600061 h 16.19953 l -2.59984,-7.600061 z m 22.20019,0 2.59984,7.600061 H 561.18 l -5.94228,-7.600061 z" id="path24395"/>
      <path id="path896" d="m 415.68,-27.500106 c -7.89292,13.43937 -17.21332,24.6272295 -45.6,30.4999995 -0.64562,0.88148 -1.35389,1.47229 -2.80444,1.87018 -3.09385,0.5657203 -6.43639,-2.01646 -6.49556,-6.41018 0.0526,-4.42798 -0.4768,-7.84674 3.8,-8.8599905 4.29561,-0.845699 4.4,1.6000005 4.4,1.6000005 8.91858,-5.2454295 14.02062,-5.6525295 24.9,-19.6000095 3.99341,-6.13762 5.50195,-10.08595 7.7,-17.2 2.93634,-9.72201 10.20489,-15.82659 17,-21.9 v -6.5 l 15,-3.2 3.2,5.8 c 17.40447,2.65439 26.66642,12.17562 35,22.2 10.44903,10.94772 17.77472,32.92393 18.1,46.4999995 3.63716,0.7739 3.7894,2.35765997 3.8,5.5 -0.16681,4.8224503 -9.99752,7.9250405 -14.3,7.8000005 -3.29837,-0.21489 -4.22712,-6.7415005 -1.9,-9.60000053 C 478.47709,-17.500746 472.11669,-25.876386 462.28,-33.400106 V 0.19989347 C 463.71786,43.383094 486.99735,78.078294 510.78,102.9999 c -3.41384,7.40175 -7.6446,20.42742 -13.4,21 l -10.4,1 2.9,-3.9 c 1.92879,-3.12954 1.24914,-9.04665 4.7,-15.2 C 469.72415,85.716804 465.70117,77.953524 438.57997,32.599894 419.7479,77.141764 415.97971,84.264134 402.38,135.3999 l -32.2,-14.2 1.8,-1.99976 21.9,-0.90024 c 1.62725,-24.393416 10.01384,-59.379966 24.7,-103.900006 1.74716,-5.8120902 3.1326,-33.09176 -2.9,-41.9 z" style="opacity:1;fill:#000000;fill-opacity:1;fill-rule:nonzero;stroke:none;stroke-width:1;stroke-linecap:butt;stroke-linejoin:miter;stroke-miterlimit:10;stroke-dasharray:none;stroke-opacity:1;paint-order:stroke fill markers"/>
    </g>
  </g>
</svg>