<?xml version="1.0" encoding="utf-8"?>
<svg width="650.76001mm" height="573.22198mm" viewBox="0 0 650.76001 573.22198" version="1.1" id="svg8" xmlns="http://www.w3.org/2000/svg">
  <defs id="defs2"/>
  <g id="layer1" transform="translate(0,276.22206)">
    <g transform="matrix(1, 0, 0, 1, -2.450165, -71.911072)">
      <circle style="opacity:1;fill:#000000;fill-opacity:1;fill-rule:nonzero;stroke:none;stroke-width:2.05054712;stroke-linecap:butt;stroke-linejoin:miter;stroke-miterlimit:4;stroke-dasharray:none;stroke-opacity:1;paint-order:stroke fill markers" id="path55349" cx="334.48001" cy="-24.499937" r="21.299999"/>
      <path style="opacity:1;fill:#000000;fill-opacity:1;fill-rule:nonzero;stroke:none;stroke-width:2.58412957;stroke-linecap:butt;stroke-linejoin:miter;stroke-miterlimit:4;stroke-dasharray:none;stroke-opacity:1;paint-order:stroke fill markers" d="m 360.073,-7.1263163 c -1.9982,0.0441 -4.0865,0.82532 -6.1929,2.12648 L 259.0802,56.600033 c -4.2178,3.13709 0.3056,12.32869 5.6999,12.40028 h 5.6999 c 0.7372,0.003 1.0852,0.94647 0.9002,1.79988 L 258.8383,116.8501 a 48.999999,48.999999 0 0 0 -20.2582,-4.44987 48.999999,48.999999 0 0 0 -49.0001,48.99959 48.999999,48.999999 0 0 0 49.0001,49.00012 48.999999,48.999999 0 0 0 49.0001,-49.00012 48.999999,48.999999 0 0 0 -20.9723,-40.12104 l 2.6484,-8.2672 57.1293,41.27966 8.4946,18.90892 -12.3,4.7997 c -7.0978,3.17468 -1.8253,9.49986 0,9.50018 h 4.6999 l 30.3997,-12.3 -0.9999,-1.90016 -2.7998,-0.99994 -2.9001,-8.49974 h 17.2201 a 48.999999,48.999999 0 0 0 48.8802,46.59974 48.999999,48.999999 0 0 0 49.0001,-49.00012 48.999999,48.999999 0 0 0 -49.0001,-48.99959 48.999999,48.999999 0 0 0 -18.434,3.63183 l -11.6277,-20.532088 2.7616,-0.003 c 4.579,0.13057 12.6902,-9.930029 8.6,-20.900019 L 368.9799,-0.20010631 C 366.483,-5.2261063 363.4032,-7.1997863 360.073,-7.1263163 Z m -27.093,36.3264693 19.9999,46.39974 -33.2001,2.80035 c -2.9875,0.52838 -7.0166,3.27941 -9.5999,7.60005 H 277.91 l 4.87,-15.2001 -1.9001,-7.60005 z m 41.7215,66.297759 14.6849,25.480618 a 48.999999,48.999999 0 0 0 -21.1894,37.12072 h -21.0168 v -3.70001 z m -99.8347,0.003 h 31.613 v 4.800228 l 13.3,36.90006 -47.3444,-34.11058 z m 67.7132,0 h 20.6003 l -19.7001,50.300278 -13.3,-36.00037 c -1.3167,-4.27585 3.6491,-14.045298 12.3998,-14.299908 z M 238.5801,126.4003 a 34.999998,34.999998 0 0 1 16.6006,4.1977 l -6e-4,0.003 c -7.0986,21.28475 -11.3626,23.67301 -16.9085,27.48569 -1.7905,1.12006 -2.3159,4.6006 0,5.69163 2.8185,0.93388 6.4824,-0.75054 9.4775,-2.84996 5.6479,-4.75281 10.5511,-11.14141 14.2311,-24.72769 l 0.185,-0.60253 a 34.999998,34.999998 0 0 1 11.4148,25.80253 34.999998,34.999998 0 0 1 -34.9999,35.00046 34.999998,34.999998 0 0 1 -34.9999,-35.00046 34.999998,34.999998 0 0 1 34.9999,-34.99993 z m 178.5002,0 a 34.999998,34.999998 0 0 1 35,34.99993 34.999998,34.999998 0 0 1 -35,35.00046 34.999998,34.999998 0 0 1 -34.9151,-32.60008 h 40.815 c 2.1104,0.0103 1.2966,-2.86467 0,-4.80023 l -17.3477,-30.63171 a 34.999998,34.999998 0 0 1 11.4478,-1.96837 z m -20.6535,6.79495 14.3531,24.90441 h -28.5347 a 34.999998,34.999998 0 0 1 14.1816,-24.90441 z" id="path55387"/>
    </g>
  </g>
</svg>