<?xml version="1.0" encoding="utf-8"?>
<svg width="702mm" height="702mm" viewBox="0 0 701.99998 702.00001" version="1.1" id="svg8" xmlns="http://www.w3.org/2000/svg">
  <defs id="defs2"/>
  <g id="layer1" transform="translate(-410.56454,876.3)">
    <circle cy="-525.29999" cx="761.56451" id="circle817" style="opacity:1;fill:#ffffff;fill-opacity:1;fill-rule:nonzero;stroke:none;stroke-width:225.58209229;stroke-linecap:round;stroke-linejoin:round;stroke-miterlimit:4;stroke-dasharray:none;stroke-opacity:1;paint-order:stroke fill markers" r="250"/>
  </g>
  <g id="layer1" transform="matrix(1, 0, 0, 1, -123.879997, 363.411011)">
    <path style="opacity:1;fill:#000000;fill-opacity:1;fill-rule:nonzero;stroke:none;stroke-width:1;stroke-linecap:butt;stroke-linejoin:miter;stroke-miterlimit:10;stroke-dasharray:none;stroke-opacity:1;paint-order:stroke fill markers" d="M 350.63 -6.261 L 372.53 -24.261 L 385.73 -24.261 L 385.73 -58.461 C 385.814 -63.551 389.356 -67.219 392.33 -69.961 L 395.23 -72.861 C 395.639 -73.278 396.068 -75.034 396.13 -75.661 C 396.193 -76.212 397.356 -78.195 398.03 -78.461 C 398.055 -79.663 398.144 -79.634 399.03 -80.461 L 399.03 -83.261 L 399.93 -84.261 L 399.93 -85.161 L 401.83 -87.061 L 401.83 -88.061 L 402.83 -88.961 L 403.73 -88.961 C 404.087 -90.114 404.709 -91.103 405.63 -91.861 L 405.63 -92.861 C 407.49 -95.014 409.865 -97.152 412.33 -98.461 L 413.33 -98.461 L 413.33 -99.461 L 415.13 -101.461 C 415.15 -104.944 415.383 -107.083 417.03 -108.061 L 423.63 -110.861 L 425.53 -110.861 L 425.53 -115.661 L 426.53 -115.661 C 429.663 -117.957 430.872 -118.018 435.03 -116.561 L 435.03 -117.561 C 433.59 -118.535 433.165 -120.393 433.156 -121.347 C 433.328 -124.127 433.709 -126.315 435.93 -127.061 C 439.958 -128.173 446.454 -128.929 452.13 -128.961 C 453.521 -128.951 456.099 -126.43 456.83 -125.161 L 457.83 -125.161 L 462.53 -121.361 L 463.53 -121.361 L 465.43 -117.461 C 465.678 -116.92 465.516 -116.19 465.43 -115.661 L 464.53 -110.861 C 464.657 -108.912 464.531 -106.807 463.53 -105.161 C 462.949 -104.34 461.305 -103.771 460.63 -103.261 C 460.145 -102.895 459.267 -102.008 458.73 -101.361 C 458.249 -100.753 456.904 -99.97 455.923 -99.467 L 455.93 -98.461 L 448.33 -99.461 L 448.33 -94.661 C 448.351 -93.207 443.721 -89.027 441.63 -88.961 L 432.13 -88.961 C 431.121 -88.642 429.201 -88.03 427.43 -86.161 L 424.63 -86.161 L 422.73 -85.161 C 422.212 -84.349 420.74 -83.281 419.93 -83.261 L 417.03 -83.261 C 415.585 -82.346 412.774 -81.412 410.33 -81.361 L 408.53 -81.361 C 408.523 -80.325 408.164 -80.15 406.63 -79.461 C 406.621 -78.372 406.38 -78.291 405.63 -77.661 L 405.63 -75.661 C 405.624 -75.196 403.754 -73.629 403.73 -72.861 L 403.73 -69.961 L 402.83 -69.061 C 402.907 -66.415 402.882 -66.187 401.83 -65.161 C 401.856 -62.863 402.097 -61.552 400.93 -58.461 L 400.93 -24.261 L 435.93 -24.261 L 435.93 -30.961 L 453.03 -39.461 L 470.13 -30.961 L 470.13 -24.261 L 499.53 -24.261 L 499.53 -41.461 L 504.33 -43.461 L 508.73 -43.461 L 513.53 -41.461 L 513.53 -24.261 L 545.93 -24.261 L 545.93 -58.461 L 581.13 -58.461 L 581.13 -51.861 L 553.53 -51.861 L 553.53 -24.261 L 560.23 -24.261 L 560.23 50.939 L 592.43 50.939 L 592.43 15.539 L 600.03 15.539 L 600.03 63.339 L 610.63 63.339 L 610.63 52.739 L 615.23 52.739 L 615.23 80.539 L 610.63 80.539 L 610.63 69.939 L 560.23 69.939 L 560.23 81.339 L 350.63 81.339 L 350.63 64.139 L 340.23 64.139 L 340.23 74.539 L 334.53 74.539 L 334.53 46.139 L 340.23 46.139 L 340.23 56.539 L 350.63 56.539 L 350.63 -6.261 Z" id="rect11873"/>
    <circle style="opacity:1;fill:#000000;fill-opacity:1;fill-rule:nonzero;stroke:none;stroke-width:1.2111274;stroke-linecap:butt;stroke-linejoin:miter;stroke-miterlimit:10;stroke-dasharray:none;stroke-opacity:1;paint-order:stroke fill markers" id="path11876" cx="537.43" cy="81.339" r="22.8"/>
    <circle r="22.8" cy="81.339" cx="487.43" id="circle11878" style="opacity:1;fill:#000000;fill-opacity:1;fill-rule:nonzero;stroke:none;stroke-width:1.2111274;stroke-linecap:butt;stroke-linejoin:miter;stroke-miterlimit:10;stroke-dasharray:none;stroke-opacity:1;paint-order:stroke fill markers"/>
    <circle r="22.8" cy="81.339" cx="437.43" id="circle11880" style="opacity:1;fill:#000000;fill-opacity:1;fill-rule:nonzero;stroke:none;stroke-width:1.2111274;stroke-linecap:butt;stroke-linejoin:miter;stroke-miterlimit:10;stroke-dasharray:none;stroke-opacity:1;paint-order:stroke fill markers"/>
    <circle style="opacity:1;fill:#000000;fill-opacity:1;fill-rule:nonzero;stroke:none;stroke-width:1.2111274;stroke-linecap:butt;stroke-linejoin:miter;stroke-miterlimit:10;stroke-dasharray:none;stroke-opacity:1;paint-order:stroke fill markers" id="circle11882" cx="387.43" cy="81.339" r="22.8"/>
  </g>
</svg>