<?xml version="1.0" encoding="utf-8"?>
<svg width="702mm" height="702mm" viewBox="0 0 702 702" version="1.1" id="svg8" xmlns="http://www.w3.org/2000/svg">
  <defs id="defs2"/>
  <g id="layer1" transform="translate(-209.99992,832.00002)">
    <circle cy="-481" cx="561" id="circle817" style="opacity:1;fill:#ffffff;fill-opacity:1;fill-rule:nonzero;stroke:none;stroke-width:225.58209229;stroke-linecap:round;stroke-linejoin:round;stroke-miterlimit:4;stroke-dasharray:none;stroke-opacity:1;paint-order:stroke fill markers" r="250"/>
    <g transform="matrix(1, 0, 0, 1, 0.000107, -47.250015)">
      <path style="opacity:1;fill:#000000;fill-opacity:1;fill-rule:nonzero;stroke:none;stroke-width:7.24185324;stroke-linecap:round;stroke-linejoin:miter;stroke-miterlimit:4;stroke-dasharray:none;stroke-opacity:1;paint-order:stroke fill markers" d="m 513.49992,-550.99991 c -23.5958,0.0403 -40.4339,5.83454 -50.0001,10.39987 -1.2405,0.65098 -2.5932,2.5236 -2.9001,3.79979 l -1.0996,2.90007 -32.2001,63.20028 -1,1.99988 c -7.6524,7.03503 -14.9857,18.51284 -19.0004,29.19976 -2.7113,7.46085 -3.7923,16.62271 -3.7997,23.80009 0.02,3.13399 0.4404,5.97297 0.9999,8.40002 l 12.3,57.80008 1.9002,2.79982 v 30.20023 h 22.7996 v -33.00005 h 239.0004 v 33.00005 h 22.7996 v -30.20023 l 1.9002,-2.79982 12.3,-57.80008 c 0.5595,-2.42705 0.9799,-5.26603 0.9999,-8.40002 -0.01,-7.17738 -1.0884,-16.33924 -3.7997,-23.80009 -4.0147,-10.68692 -11.348,-22.16473 -19.0004,-29.19976 l -0.9999,-1.99988 -32.2002,-63.20028 -1.0996,-2.90007 c -0.3069,-1.27619 -1.6596,-3.14881 -2.9001,-3.79979 -9.5662,-4.56533 -26.4043,-10.35957 -50.0001,-10.39987 z" id="rect26972"/>
      <circle style="opacity:1;fill:#ffffff;fill-opacity:1;fill-rule:nonzero;stroke:none;stroke-width:2.95268464;stroke-linecap:round;stroke-linejoin:miter;stroke-miterlimit:4;stroke-dasharray:none;stroke-opacity:1;paint-order:stroke fill markers" id="path800" cx="436.69992" cy="-426.30002" r="19"/>
      <path style="opacity:1;fill:#ffffff;fill-opacity:1;fill-rule:nonzero;stroke:none;stroke-width:6;stroke-linecap:round;stroke-linejoin:miter;stroke-miterlimit:4;stroke-dasharray:none;stroke-opacity:1;paint-order:stroke fill markers" d="m 467.29992,-424.30005 h 54.2 v 35 h -67.8 z" id="rect802"/>
      <path style="opacity:1;fill:#ffffff;fill-opacity:1;fill-rule:nonzero;stroke:none;stroke-width:6;stroke-linecap:round;stroke-linejoin:miter;stroke-miterlimit:4;stroke-dasharray:none;stroke-opacity:1;paint-order:stroke fill markers" d="m 528.10002,-424.30016 v 34.99993 h 65.7996 v -34.99993 z" id="path805"/>
      <path style="opacity:1;fill:#ffffff;fill-opacity:1;fill-rule:nonzero;stroke:none;stroke-width:6;stroke-linecap:round;stroke-linejoin:miter;stroke-miterlimit:4;stroke-dasharray:none;stroke-opacity:1;paint-order:stroke fill markers" d="m 475.50012,-521.6999 c -3.4294,0.006 -6.2073,2.97233 -7.2001,5.59967 l -13.4002,42.59998 h 212.2 l -13.4002,-42.59998 c -0.9928,-2.62734 -3.7707,-5.59361 -7.2001,-5.59967 z" id="rect1151"/>
      <circle r="19" cy="-426.30002" cx="685.29974" id="circle1220" style="opacity:1;fill:#ffffff;fill-opacity:1;fill-rule:nonzero;stroke:none;stroke-width:2.95268464;stroke-linecap:round;stroke-linejoin:miter;stroke-miterlimit:4;stroke-dasharray:none;stroke-opacity:1;paint-order:stroke fill markers"/>
      <path id="path1222" d="m 654.69972,-424.30005 h -54.2 v 35 h 67.8 z" style="opacity:1;fill:#ffffff;fill-opacity:1;fill-rule:nonzero;stroke:none;stroke-width:6;stroke-linecap:round;stroke-linejoin:miter;stroke-miterlimit:4;stroke-dasharray:none;stroke-opacity:1;paint-order:stroke fill markers"/>
    </g>
  </g>
</svg>