<?xml version="1.0" encoding="utf-8"?>
<svg width="702mm" height="702mm" viewBox="0 0 701.99998 702.00001" version="1.1" id="svg8" xmlns="http://www.w3.org/2000/svg">
  <defs id="defs2"/>
  <g id="layer1" transform="translate(-410.56454,876.3)">
    <circle cy="-525.29999" cx="761.56451" id="circle817" style="opacity:1;fill:#ffffff;fill-opacity:1;fill-rule:nonzero;stroke:none;stroke-width:225.58209229;stroke-linecap:round;stroke-linejoin:round;stroke-miterlimit:4;stroke-dasharray:none;stroke-opacity:1;paint-order:stroke fill markers" r="250"/>
  </g>
  <g id="g-1" transform="matrix(1, 0, 0, 1, 25.620031, 255.800125)">
    <path style="opacity:1;fill:#000000;fill-opacity:1;fill-rule:nonzero;stroke:none;stroke-width:70;stroke-linecap:butt;stroke-linejoin:miter;stroke-miterlimit:4;stroke-dasharray:none;stroke-opacity:1;paint-order:stroke fill markers" d="M 179.13876,71.799952 151.08,120.39957 h 45.80082 a 39.999999,39.999999 0 0 1 37.19928,-25.399998 39.999999,39.999999 0 0 1 37.23391,25.399998 h 48.36601 V 71.799952 Z" id="rect10535"/>
    <path style="opacity:1;fill:#000000;fill-opacity:1;fill-rule:nonzero;stroke:none;stroke-width:80.18309784;stroke-linecap:butt;stroke-linejoin:miter;stroke-miterlimit:4;stroke-dasharray:none;stroke-opacity:1;paint-order:stroke fill markers" d="m 258.08,25.199802 h 61.60002 v 34.2 H 258.08 Z" id="rect10538"/>
    <path id="path10570" d="m 206.044,25.199802 h 39.837 v 34.2 h -59.583 z" style="opacity:1;fill:#000000;fill-opacity:1;fill-rule:nonzero;stroke:none;stroke-width:80.18309784;stroke-linecap:butt;stroke-linejoin:miter;stroke-miterlimit:4;stroke-dasharray:none;stroke-opacity:1;paint-order:stroke fill markers"/>
    <path style="opacity:1;fill:#000000;fill-opacity:1;fill-rule:nonzero;stroke:none;stroke-width:83.90283203;stroke-linecap:butt;stroke-linejoin:miter;stroke-miterlimit:4;stroke-dasharray:none;stroke-opacity:1;paint-order:stroke fill markers" d="m 234.0801,100.79973 a 32.2,32.2 0 0 0 -32.2001,32.2001 32.2,32.2 0 0 0 32.2001,32.20011 32.2,32.2 0 0 0 32.2001,-32.20011 32.2,32.2 0 0 0 -32.2001,-32.2001 z m 0,19.59984 a 12.6,12.6 0 0 1 12.59975,12.60026 12.6,12.6 0 0 1 -12.59975,12.59975 12.6,12.6 0 0 1 -12.60026,-12.59975 12.6,12.6 0 0 1 12.60026,-12.60026 z" id="circle10615"/>
    <path style="opacity:1;fill:#000000;fill-opacity:1;fill-rule:nonzero;stroke:none;stroke-width:70;stroke-linecap:butt;stroke-linejoin:miter;stroke-miterlimit:4;stroke-dasharray:none;stroke-opacity:1;paint-order:stroke fill markers" d="m 439.08002,97.599932 -65.4002,8.599988 -8.6,10.59987 -45.3998,14.40015 v 7.40007 l -12.2003,1.79989 -1.99984,13.3997 h 23.92824 a 19.899999,19.899999 0 0 1 19.572,-16.40003 19.899999,19.899999 0 0 1 17.294,10.10532 l 68.0144,-11.76414 a 17.899999,17.899999 0 0 1 17.4915,-14.14074 17.899999,17.899999 0 0 1 15.2094,8.48476 l 0.4904,-0.0847 32.2001,-9.60045 -10.3999,-8.59999 h -34.9999 z" id="rect10870"/>
    <path style="opacity:1;fill:#000000;fill-opacity:1;fill-rule:nonzero;stroke:none;stroke-width:54.75669098;stroke-linecap:butt;stroke-linejoin:miter;stroke-miterlimit:4;stroke-dasharray:none;stroke-opacity:1;paint-order:stroke fill markers" d="m 348.18002,140.59975 a 12.3,12.3 0 0 0 -12.3,12.30003 12.3,12.3 0 0 0 12.3,12.30002 12.3,12.3 0 0 0 12.3,-12.30002 12.3,12.3 0 0 0 -12.3,-12.30003 z m 0,6.29988 a 5.9999998,5.9999998 0 0 1 6.0002,6.00015 5.9999998,5.9999998 0 0 1 -6.0002,5.99963 5.9999998,5.9999998 0 0 1 -6.0001,-5.99963 5.9999998,5.9999998 0 0 1 6.0001,-6.00015 z" id="path10914"/>
    <path id="path10919" d="m 451.38002,126.29975 a 12.3,12.3 0 0 0 -12.3,12.30003 12.3,12.3 0 0 0 12.3,12.30002 12.3,12.3 0 0 0 12.3,-12.30002 12.3,12.3 0 0 0 -12.3,-12.30003 z m 0,6.29988 a 5.9999998,5.9999998 0 0 1 6.0002,6.00015 5.9999998,5.9999998 0 0 1 -6.0002,5.99963 5.9999998,5.9999998 0 0 1 -6.0001,-5.99963 5.9999998,5.9999998 0 0 1 6.0001,-6.00015 z" style="opacity:1;fill:#000000;fill-opacity:1;fill-rule:nonzero;stroke:none;stroke-width:54.75669098;stroke-linecap:butt;stroke-linejoin:miter;stroke-miterlimit:4;stroke-dasharray:none;stroke-opacity:1;paint-order:stroke fill markers"/>
    <path style="opacity: 1; fill-rule: nonzero; stroke: none; stroke-width: 70; stroke-linecap: butt; stroke-linejoin: miter; stroke-miterlimit: 4; stroke-dasharray: none; stroke-opacity: 1; paint-order: stroke; fill: rgb(255, 255, 255);" d="m 375.68002,109.9998 60.6,-9.6 12.2,11.4 -89.4,15.4 z" id="rect10927"/>
    <rect style="opacity:1;fill:#000000;fill-opacity:1;fill-rule:nonzero;stroke:none;stroke-width:74.67058563;stroke-linecap:butt;stroke-linejoin:miter;stroke-miterlimit:4;stroke-dasharray:none;stroke-opacity:1;paint-order:stroke fill markers" id="rect10930" width="3.8" height="22" x="388.87997" y="104.59976"/>
    <rect y="101.19974" x="417.28" height="22" width="4.5999999" id="rect10932" style="opacity:1;fill:#000000;fill-opacity:1;fill-rule:nonzero;stroke:none;stroke-width:82.15550995;stroke-linecap:butt;stroke-linejoin:miter;stroke-miterlimit:4;stroke-dasharray:none;stroke-opacity:1;paint-order:stroke fill markers"/>
  </g>
</svg>