<?xml version="1.0" encoding="utf-8"?>
<svg width="702mm" height="702mm" viewBox="0 0 701.99998 702.00001" version="1.1" id="svg8" xmlns="http://www.w3.org/2000/svg">
  <defs id="defs2"/>
  <g id="layer1" transform="translate(-410.56454,876.3)">
    <circle cy="-525.29999" cx="761.56451" id="circle817" style="opacity:1;fill:#ffffff;fill-opacity:1;fill-rule:nonzero;stroke:none;stroke-width:225.58209229;stroke-linecap:round;stroke-linejoin:round;stroke-miterlimit:4;stroke-dasharray:none;stroke-opacity:1;paint-order:stroke fill markers" r="250"/>
  </g>
  <path style="opacity:1;fill:#000000;fill-opacity:1;fill-rule:nonzero;stroke:none;stroke-width:2;stroke-linecap:butt;stroke-linejoin:miter;stroke-miterlimit:4;stroke-dasharray:none;stroke-opacity:1;paint-order:stroke fill markers" d="M 219.088 259.439 C 230.685 265.192 239.89 266.335 249.388 263.842 L 301.391 246.757 C 314.89 242.596 329.66 242.858 337.496 246.757 L 412.626 285.038 C 417.563 287.537 419.2 293.555 419.955 300.092 L 426.332 351.449 L 495.937 398.122 C 500.173 401.16 502.987 406.54 499.269 413.799 L 489.654 432.671 C 487.57 436.834 481.654 441.328 470.798 435.799 L 238.943 317.663 L 201 294.934 L 219.088 259.439 Z" id="rect7599"/>
  <circle style="opacity:1;fill:#000000;fill-opacity:1;fill-rule:nonzero;stroke:none;stroke-width:2.2582109;stroke-linecap:butt;stroke-linejoin:miter;stroke-miterlimit:4;stroke-dasharray:none;stroke-opacity:1;paint-order:stroke fill markers" id="path7602" cx="265.226" cy="-109.775" r="26.98" transform="matrix(0.891007, 0.45399, -0.45399, 0.891007, -21.92242, 305.969486)"/>
  <circle r="26.98" cy="-109.775" cx="428.426" id="circle7604" style="opacity:1;fill:#000000;fill-opacity:1;fill-rule:nonzero;stroke:none;stroke-width:2.2582109;stroke-linecap:butt;stroke-linejoin:miter;stroke-miterlimit:4;stroke-dasharray:none;stroke-opacity:1;paint-order:stroke fill markers" transform="matrix(0.891007, 0.45399, -0.45399, 0.891007, 15.992114, 325.287887)"/>
  <path style="opacity: 1; fill-opacity: 1; fill-rule: nonzero; stroke: none; stroke-width: 2; stroke-linecap: butt; stroke-linejoin: miter; stroke-miterlimit: 4; stroke-dasharray: none; stroke-opacity: 1; paint-order: stroke; fill: rgb(255, 255, 255);" d="M 325.214 257.764 L 354.196 272.531 L 337.253 305.781 L 274.123 273.614 L 325.214 257.764 Z" id="rect9313"/>
  <path style="opacity: 1; fill-opacity: 1; fill-rule: nonzero; stroke: none; stroke-width: 2; stroke-linecap: butt; stroke-linejoin: miter; stroke-miterlimit: 4; stroke-dasharray: none; stroke-opacity: 1; paint-order: stroke; fill: rgb(255, 255, 255);" d="M 361.385 276.193 L 407.891 299.89 L 414.539 345.159 L 344.443 309.444 L 361.385 276.193 Z" id="rect9316"/>
</svg>