<?xml version="1.0" encoding="utf-8"?>
<svg width="702mm" height="702mm" viewBox="0 0 702 702" version="1.1" id="svg8" xmlns="http://www.w3.org/2000/svg">
  <defs id="defs2"/>
  <g id="layer1" transform="translate(0,405)">
    <circle cy="-54" cx="351" id="circle817" style="opacity:1;fill:#ffffff;fill-opacity:1;fill-rule:nonzero;stroke:none;stroke-width:225.58209229;stroke-linecap:round;stroke-linejoin:round;stroke-miterlimit:4;stroke-dasharray:none;stroke-opacity:1;paint-order:stroke fill markers" r="250"/>
    <path style="opacity:1;fill:#f00a0a;fill-opacity:1;fill-rule:nonzero;stroke:none;stroke-width:2.71882319;stroke-linecap:round;stroke-linejoin:miter;stroke-miterlimit:10;stroke-dasharray:none;stroke-opacity:1;paint-order:stroke fill markers" d="M 267.3 -181.75 C 258.99 -181.75 252.3 -175.06 252.3 -166.75 L 252.3 39.75 C 252.3 48.06 258.99 54.75 267.3 54.75 L 268.3 54.75 L 268.3 73.75 L 281.5 73.75 L 281.5 54.75 L 285.3 54.75 L 285.3 73.75 L 298.5 73.75 L 298.5 54.75 L 403.5 54.75 L 403.5 73.75 L 416.7 73.75 L 416.7 54.75 L 420.5 54.75 L 420.5 73.75 L 433.7 73.75 L 433.7 54.75 L 434.7 54.75 C 443.01 54.75 449.7 48.06 449.7 39.75 L 449.7 -166.75 C 449.7 -175.06 443.01 -181.75 434.7 -181.75 L 267.3 -181.75 Z" id="rect20642"/>
  </g>
</svg>