<?xml version="1.0" encoding="utf-8"?>
<svg id="svg8" version="1.1" viewBox="0 0 702 702" height="702mm" width="702mm" xmlns="http://www.w3.org/2000/svg">
  <defs id="defs2"/>
  <g transform="translate(-2462.2349,397.51708)" id="layer1">
    <path id="path57776" d="M 2842.251 -161.698 C 2849.301 -161.698 2855.016 -155.983 2855.016 -148.934 C 2855.006 -144.427 2852.629 -140.258 2848.75 -137.964 L 2849.628 -137.964 C 2857.396 -131.763 2865.255 -122.001 2868.576 -106.451 C 2869.116 -103.464 2861.967 -99.942 2860.796 -99.869 L 2860.796 -89.299 C 2860.796 -85.928 2866.097 -81.005 2868.376 -80.922 L 2873.163 -80.922 C 2881.627 -81.125 2888.022 -94.553 2893.705 -100.867 C 2899.516 -107.33 2912.547 -123.547 2942.969 -123.604 C 2967.914 -123.536 2989.179 -112.909 3002.205 -84.911 C 3010.216 -66.771 3026.827 -58.99 3040.101 -58.983 L 3022.15 3.046 L 3006.76 3.046 C 3013.614 10.257 3017.444 19.822 3017.462 29.771 C 3017.462 51.251 3000.05 68.664 2978.571 68.664 C 2957.09 68.663 2939.677 51.251 2939.677 29.771 C 2939.687 19.827 2943.503 10.263 2950.346 3.046 L 2892.577 3.046 C 2899.431 10.257 2903.261 19.822 2903.279 29.771 C 2903.279 51.251 2885.867 68.664 2864.386 68.664 C 2842.907 68.663 2825.494 51.251 2825.494 29.771 C 2825.504 19.827 2829.32 10.263 2836.161 3.046 L 2820.309 3.046 L 2820.309 -13.209 L 2803.356 -13.209 C 2803.581 -6.95 2799.809 -2.776 2798.569 -2.739 L 2796.767 -2.739 C 2794.108 -2.731 2786.518 -15.066 2786.396 -16.101 L 2767.448 -17 L 2767.448 -12.313 L 2783.604 7.732 C 2785 9.637 2783.311 13.624 2781.6 15.411 L 2781.6 20.197 L 2779.799 27.776 L 2778.808 39.145 L 2777.817 41.14 C 2778.583 40.937 2779.799 41.095 2779.821 42.038 L 2779.821 43.932 L 2780.722 44.93 L 2780.722 49.616 C 2781.33 49.95 2781.668 50.468 2781.623 51.524 L 2779.754 51.524 L 2778.808 52.481 L 2778.808 57.296 L 2779.799 59.192 L 2774.115 63.979 L 2770.326 62.085 L 2767.534 64.877 L 2765.642 64.877 L 2765.642 61.088 L 2771.226 55.404 L 2771.226 51.514 C 2770.709 51.514 2770.326 51.604 2770.326 50.616 L 2770.326 48.72 C 2770.316 48.159 2770.326 47.718 2771.226 47.722 L 2771.226 42.936 L 2772.217 42.935 L 2772.217 12.42 C 2762.125 4.311 2754.519 -3.281 2746.688 -11.314 L 2744.886 -10.316 L 2744.886 -7.524 C 2749.072 -3.509 2754.541 3.887 2756.057 7.734 C 2756.98 7.739 2758.038 7.983 2758.038 8.731 L 2758.038 12.521 L 2757.048 12.521 C 2757.032 14.651 2752.855 19.001 2751.463 20.199 L 2750.473 20.199 L 2738.208 45.828 L 2738.208 46.826 L 2739.108 47.724 L 2739.108 52.511 L 2738.208 52.511 L 2738.208 54.407 L 2737.307 54.407 L 2735.416 55.405 L 2732.524 55.315 L 2731.624 56.312 L 2728.733 56.312 L 2728.733 53.52 L 2730.737 50.628 L 2731.637 49.63 C 2731.637 45.81 2731.412 42.32 2732.538 39.16 C 2736.251 28.852 2742.533 16.421 2746.699 10.639 C 2745.01 10.504 2724.083 -7.944 2724.06 -9.306 L 2724.06 -15.09 L 2720.37 -16.088 C 2708.758 -9.781 2693.573 -9.163 2677.89 -11.301 C 2676.493 -3.186 2673.893 5.759 2669.313 12.533 L 2669.313 20.112 L 2670.304 24.001 L 2670.304 45.841 L 2672.195 47.735 L 2672.195 50.527 L 2669.304 53.419 L 2669.304 57.308 L 2670.295 58.207 L 2672.186 60.1 L 2671.285 61.098 L 2668.394 61.098 L 2663.708 65.885 L 2658.921 65.885 L 2658.921 61.098 L 2660.925 59.204 L 2662.727 58.207 L 2663.717 57.308 L 2663.717 51.524 L 2660.925 51.524 L 2660.925 47.735 L 2662.727 46.737 L 2662.727 39.158 L 2661.826 37.264 L 2659.935 24.001 L 2659.935 20.211 C 2655.827 13.205 2653.601 6.471 2652.355 -0.83 L 2650.554 -0.83 C 2649.833 2.594 2643.281 7.429 2637.289 8.644 L 2637.289 36.965 C 2637.289 38.699 2641.966 41.468 2641.977 41.951 L 2641.977 47.735 L 2643.869 49.629 L 2646.762 49.629 L 2648.564 50.527 L 2648.564 52.522 L 2641.182 66.782 L 2632.608 54.317 L 2632.608 45.841 L 2631.617 45.841 L 2631.617 36.367 C 2631.617 33.702 2625.033 22.709 2625.036 20.212 L 2625.036 12.433 C 2625.283 8.354 2629.213 -0.125 2633.61 -7.512 C 2633.182 -12.899 2634.331 -17.027 2635.411 -20.874 L 2634.421 -22.669 L 2634.421 -25.561 L 2626.044 -37.927 L 2626.044 -49.395 C 2626.27 -52.805 2628.357 -58.035 2629.832 -59.766 C 2629.607 -66.011 2630.597 -69.664 2631.633 -74.924 L 2631.633 -84.498 C 2629.082 -87.313 2627.63 -91.438 2627.843 -94.071 L 2625.051 -94.071 C 2625.051 -92.615 2622.464 -90.353 2620.264 -90.282 L 2612.784 -90.282 C 2611.298 -90.304 2604.818 -80.808 2603.311 -80.808 L 2596.331 -80.808 C 2596.038 -80.8 2596.106 -79.808 2595.836 -79.811 L 2587.358 -79.811 C 2586.908 -79.819 2586.367 -80.261 2586.367 -80.907 L 2586.367 -91.278 C 2586.383 -93.49 2597.502 -102.491 2602.323 -110.425 C 2606.027 -117.602 2614.507 -128.654 2619.377 -130.271 L 2624.063 -135.057 L 2624.063 -137.949 L 2623.162 -138.848 L 2623.162 -144.532 C 2623.995 -145.577 2624.648 -147.226 2625.054 -148.322 C 2625.054 -148.322 2627.497 -145.556 2628.843 -142.637 L 2630.645 -138.848 C 2630.87 -138.528 2631.23 -138.226 2631.635 -137.949 L 2643.903 -130.271 C 2644.646 -129.899 2647.08 -129.426 2648.588 -128.375 C 2658.809 -119.883 2663.19 -116.599 2669.331 -103.644 C 2672.443 -97.046 2686.07 -81.025 2696.855 -80.707 L 2712.811 -80.707 C 2718.251 -80.82 2734.495 -85.274 2743.925 -88.386 C 2747.131 -89.512 2759.358 -88.07 2763.67 -84.596 C 2764.683 -86.513 2769.902 -90.439 2774.041 -91.278 C 2775.707 -91.613 2776.723 -91.753 2778.828 -91.278 C 2783.055 -90.291 2787.067 -85.53 2789.598 -79.909 C 2793.392 -71.699 2799.003 -58.067 2802.363 -24.662 L 2820.313 -21.67 L 2823.105 -22.668 L 2823.105 -25.66 C 2823.105 -27.758 2821.349 -28.371 2819.316 -28.452 L 2807.15 -28.452 L 2807.15 -32.241 L 2815.526 -37.028 L 2815.526 -75.123 L 2832.479 -91.278 C 2832.704 -91.507 2833.425 -92.399 2833.47 -93.273 L 2833.47 -97.86 L 2831.669 -98.858 L 2829.665 -97.86 L 2828.876 -97.86 C 2827.053 -96.169 2823.628 -93.773 2822.094 -93.273 C 2820.045 -92.629 2816.109 -91.363 2811.923 -91.278 L 2806.139 -91.278 C 2805.508 -91.3 2805.148 -91.769 2805.148 -92.275 L 2805.148 -97.86 C 2809.899 -99.11 2815.517 -102.454 2817.514 -102.647 C 2818.483 -102.759 2822.241 -102.804 2825.891 -103.644 L 2825.891 -122.591 C 2826.116 -127.103 2831.295 -133.731 2835.465 -137.949 L 2835.735 -137.949 C 2831.858 -140.243 2829.475 -144.412 2829.471 -148.918 C 2829.471 -155.968 2835.186 -161.683 2842.236 -161.683 L 2842.251 -161.698 Z M 2775.034 -83.99 C 2774.426 -83.998 2773.841 -83.922 2773.233 -83.715 C 2772.017 -82.981 2770.339 -80.724 2770.339 -80.724 C 2774.142 -75.583 2780.483 -65.826 2780.711 -56.989 C 2780.711 -49.947 2777.178 -32.477 2776.025 -29.366 L 2787.295 -27.472 L 2787.295 -62.974 C 2787.069 -69.73 2784.484 -77.221 2783.503 -78.93 C 2782.85 -80.815 2778.963 -83.124 2776.822 -83.716 C 2776.214 -83.874 2775.629 -83.98 2775.021 -83.991 L 2775.034 -83.99 Z" style="opacity:1;fill:#ffffff;fill-opacity:1;fill-rule:nonzero;stroke:none;stroke-width:0.0477389;stroke-linecap:round;stroke-linejoin:miter;stroke-miterlimit:10;stroke-dasharray:none;stroke-opacity:1;paint-order:stroke fill markers"/>
  </g>
</svg>