<?xml version="1.0" encoding="utf-8"?>
<svg width="650.76001mm" height="573.22198mm" viewBox="0 0 650.76001 573.22198" version="1.1" id="svg8" xmlns="http://www.w3.org/2000/svg">
  <defs id="defs2"/>
  <g id="layer1" transform="translate(0,276.22206)">
    <path style="opacity:1;fill:#000000;fill-opacity:1;fill-rule:nonzero;stroke:none;stroke-width:1;stroke-linecap:butt;stroke-linejoin:miter;stroke-miterlimit:10;stroke-dasharray:none;stroke-opacity:1;paint-order:stroke fill markers" d="M 273.28 -27.911 L 309.28 7.989 C 344.873 7.291 356.784 7.786 367.98 10.889 C 381.206 15.033 385.321 22.164 389.78 29.689 C 391.933 33.098 394.584 45.673 391.78 54.389 L 391.78 59.089 C 395.065 61.207 397.401 63.397 399.38 65.689 L 402.18 67.589 L 412.58 70.389 L 436.38 116.689 L 445.78 124.289 L 445.78 138.489 L 431.58 128.989 L 426.78 121.489 L 418.28 116.689 L 398.38 84.589 L 371.78 80.889 L 314.98 50.489 L 282.78 54.289 L 266.58 47.689 L 258.08 53.389 L 227.78 39.189 C 226.969 39.789 226.31 43.079 226.78 43.889 L 240.98 65.689 L 256.18 74.189 L 256.18 80.889 L 242.98 80.889 L 224.98 61.989 L 204.98 30.689 L 204.98 29.689 L 205.98 24.989 L 205.98 20.289 L 214.48 18.389 L 238.18 25.089 L 247.58 23.189 C 246.266 6.275 245.394 -15.753 245.78 -27.911 L 236.28 -50.611 L 216.38 -58.111 C 216.009 -58.289 215.622 -58.58 215.38 -59.111 C 214.223 -61.594 212.684 -65.925 212.58 -66.711 L 211.58 -68.511 L 211.58 -70.511 L 221.98 -71.411 L 224.88 -72.311 L 232.48 -72.311 C 240.22 -79.295 249.882 -84.42 258.08 -88.411 L 268.18 -112.111 L 274.18 -112.111 L 269.38 -98.811 L 269.38 -96.911 C 269.412 -96.912 274.18 -101.611 274.18 -101.611 L 278.98 -104.511 L 292.18 -114.911 L 294.98 -117.711 L 296.98 -117.711 L 296.98 -114.911 L 294.08 -112.011 L 288.38 -104.511 L 288.38 -103.511 L 298.78 -101.711 L 298.78 -98.811 L 297.88 -96.911 L 295.98 -96.911 L 286.58 -98.811 L 282.78 -98.811 C 277.313 -92.994 270.071 -86.845 262.78 -81.711 L 262.78 -76.111 L 277.98 -76.111 C 280.43 -76.08 282.879 -73.014 282.98 -70.511 C 282.942 -66.887 280.833 -65.171 277.98 -63.811 L 264.78 -58.111 C 266.31 -53.85 267.187 -48.105 267.58 -42.111 L 273.28 -27.911 Z" id="rect11932"/>
  </g>
</svg>