<?xml version="1.0" encoding="utf-8"?>
<svg id="svg8" version="1.1" viewBox="0 0 702 702" height="702mm" width="702mm" xmlns="http://www.w3.org/2000/svg">
  <defs id="defs2"/>
  <g transform="translate(-2462.2349,397.51708)" id="layer1">
    <path id="path72930" d="M 2736.567 -170.935 C 2732.904 -170.919 2726.016 -167.886 2726.016 -165.261 L 2726.016 -157.596 L 2731.535 -144.456 L 2731.535 -142.466 L 2714.694 -79.615 L 2715.483 -79.412 C 2715.493 -75.133 2715.01 -71.043 2712.731 -65.803 C 2702.481 -70.777 2691.239 -73.372 2679.845 -73.393 C 2638.063 -73.393 2604.193 -39.523 2604.193 2.259 C 2604.193 44.04 2638.063 77.911 2679.845 77.911 C 2721.627 77.911 2755.497 44.04 2755.497 2.259 C 2755.497 -23.526 2742.361 -47.534 2720.648 -61.441 C 2723.014 -65.04 2724.917 -73.52 2725.543 -76.716 L 2726.804 -76.381 L 2728.38 -82.252 L 2816.705 -8.138 C 2814.949 -4.703 2814.034 -0.902 2814.034 2.955 C 2814.034 16.423 2824.953 27.342 2838.422 27.342 C 2841.935 27.337 2845.29 26.584 2848.325 25.228 L 2858.131 42.573 L 2852.559 42.573 L 2852.559 51.133 L 2872.466 51.133 L 2872.466 42.573 L 2863.905 42.573 L 2852.68 22.715 C 2858.005 18.861 2861.739 12.895 2862.597 5.941 L 2868.17 5.941 C 2870.894 46.443 2904.539 77.905 2945.132 77.91 C 2987.739 77.91 3022.277 43.371 3022.277 0.765 C 3022.277 -41.841 2987.739 -76.38 2945.132 -76.38 C 2929.611 -76.364 2915.14 -71.754 2903.023 -63.825 L 2866.346 -113.39 L 2868.237 -123.165 L 2865.281 -123.165 L 2868.739 -142.775 L 2878.53 -135.907 L 2890.873 -142.476 C 2890.857 -142.566 2893.213 -143.26 2894.656 -145.463 C 2895.737 -147.152 2897.439 -150.306 2897.441 -152.033 C 2897.451 -155.041 2894.839 -156.805 2892.663 -156.811 C 2886.622 -156.788 2879.894 -156.608 2875.544 -154.82 L 2849.861 -155.816 C 2845.315 -155.973 2836.621 -152.946 2836.522 -149.246 L 2836.522 -145.463 L 2853.545 -145.463 C 2856.666 -145.35 2862.324 -143.614 2864.819 -143.472 L 2861.239 -123.166 L 2859.01 -123.166 L 2859.01 -118.985 L 2738.204 -118.985 L 2744.5 -142.477 L 2738.565 -157.607 C 2738.317 -158.387 2738.97 -160.573 2741.55 -160.593 L 2748.697 -160.593 C 2750.408 -160.526 2753.108 -159.569 2754.689 -159.598 C 2756.941 -159.688 2761.458 -161.876 2761.46 -164.376 L 2761.46 -165.171 C 2761.46 -168.002 2759.411 -169.963 2756.517 -169.988 C 2752.676 -169.921 2740.233 -170.934 2736.574 -170.945 L 2736.567 -170.935 Z M 2736.162 -111.409 L 2856.812 -111.409 L 2839.307 -21.39 C 2838.992 -21.406 2838.699 -21.412 2838.384 -21.412 C 2835.061 -21.407 2831.805 -20.726 2828.799 -19.438 L 2819.071 -36.643 L 2824.647 -36.643 L 2824.647 -45.204 L 2804.737 -45.204 L 2804.737 -36.643 L 2813.298 -36.643 L 2824.412 -16.986 C 2823.692 -16.477 2822.971 -15.93 2822.318 -15.338 L 2730.967 -91.991 L 2736.162 -111.409 Z M 2863.995 -101.451 L 2895.791 -58.482 C 2879.426 -44.831 2868.784 -24.515 2868.075 -1.613 L 2862.333 -1.613 C 2860.802 -9.541 2855.459 -16.2 2848.046 -19.399 L 2863.995 -101.451 Z M 2945.101 -66.415 C 2982.208 -66.415 3012.291 -36.333 3012.291 0.776 C 3012.291 37.885 2982.208 67.967 2945.101 67.967 C 2909.659 67.96 2880.317 40.425 2878.061 5.056 L 2944.601 2.07 L 2945.794 2.07 C 2947.866 2.047 2948.208 -2.461 2945.119 -6.884 L 2908.925 -55.798 C 2919.375 -62.508 2931.795 -66.4 2945.103 -66.415 L 2945.101 -66.415 Z M 2679.82 -63.429 C 2690.478 -63.413 2700.973 -60.806 2710.398 -55.83 C 2702.657 -33.051 2700.056 -26.337 2684.927 -4.346 C 2683.464 -5.476 2681.669 -6.091 2679.82 -6.093 C 2675.202 -6.093 2671.458 -2.35 2671.458 2.268 C 2671.458 6.886 2675.202 10.63 2679.82 10.63 C 2684.436 10.63 2688.181 6.886 2688.181 2.268 C 2688.181 0.881 2687.843 -0.485 2687.168 -1.706 C 2696.622 -11.313 2710.033 -35.949 2718.031 -51.1 C 2735.259 -38.779 2745.489 -18.91 2745.511 2.268 C 2745.511 38.552 2716.097 67.967 2679.814 67.967 C 2643.528 67.967 2614.114 38.552 2614.114 2.268 C 2614.114 -34.015 2643.528 -63.43 2679.814 -63.43 L 2679.82 -63.429 Z M 2901.72 -50.469 L 2937.148 -2.591 L 2878.023 -1.514 C 2878.698 -21.177 2887.766 -38.628 2901.72 -50.469 L 2901.72 -50.469 Z M 2838.391 -5.297 C 2842.953 -5.297 2846.652 -1.597 2846.652 2.966 C 2846.652 7.529 2842.953 11.228 2838.391 11.228 C 2833.827 11.227 2830.13 7.529 2830.13 2.966 C 2830.13 -1.597 2833.827 -5.296 2838.391 -5.297 Z M 2679.82 -2.21 C 2682.293 -2.21 2684.299 -0.204 2684.299 2.269 C 2684.299 4.743 2682.295 6.748 2679.82 6.748 C 2677.346 6.748 2675.339 4.742 2675.339 2.269 C 2675.339 -0.205 2677.343 -2.21 2679.82 -2.21 Z" style="opacity:1;fill:#ffffff;fill-opacity:1;fill-rule:nonzero;stroke:none;stroke-width:0.0566968;stroke-linecap:round;stroke-linejoin:miter;stroke-miterlimit:10;stroke-dasharray:none;stroke-opacity:1;paint-order:stroke fill markers"/>
  </g>
</svg>