<?xml version="1.0" encoding="utf-8"?>
<svg width="702mm" height="702mm" viewBox="0 0 701.99998 702.00001" version="1.1" id="svg8" xmlns="http://www.w3.org/2000/svg">
  <defs id="defs2"/>
  <g id="layer1" transform="translate(-410.56454,876.3)">
    <circle cy="-525.29999" cx="761.56451" id="circle817" style="opacity:1;fill:#ffffff;fill-opacity:1;fill-rule:nonzero;stroke:none;stroke-width:225.58209229;stroke-linecap:round;stroke-linejoin:round;stroke-miterlimit:4;stroke-dasharray:none;stroke-opacity:1;paint-order:stroke fill markers" r="250"/>
  </g>
  <path d="M 153.601 277.992 C 148.067 296.967 145.257 316.633 145.257 336.399 C 145.257 356.165 148.067 375.83 153.601 394.806 L 178.633 394.806 C 178.633 410.934 191.707 424.009 207.836 424.009 C 223.965 424.009 237.039 410.935 237.039 394.806 L 325.818 394.806 L 325.818 387.63 L 406.554 387.63 L 406.554 394.806 L 435.758 394.806 C 435.758 410.934 448.832 424.009 464.961 424.009 C 481.09 424.009 494.164 410.935 494.164 394.806 L 548.399 394.806 C 553.933 375.831 556.743 356.165 556.743 336.399 C 556.743 326.628 556.06 316.87 554.69 307.196 L 406.554 307.196 L 406.554 378.452 L 325.818 378.452 L 325.818 277.992 L 153.601 277.992 Z" style="opacity:1;fill:#0046aa;fill-opacity:1;fill-rule:nonzero;stroke:none;stroke-width:6.37701;stroke-linecap:round;stroke-linejoin:miter;stroke-miterlimit:4;stroke-dasharray:none;stroke-opacity:1;paint-order:stroke fill markers" id="circle40161"/>
</svg>