<?xml version="1.0" encoding="utf-8"?>
<svg width="702mm" height="702mm" viewBox="0 0 701.99998 702.00001" version="1.1" id="svg8" xmlns="http://www.w3.org/2000/svg">
  <defs id="defs2"/>
  <g id="layer1" transform="translate(-410.56454,876.3)">
    <circle cy="-525.29999" cx="761.56451" id="circle817" style="opacity:1;fill:#ffffff;fill-opacity:1;fill-rule:nonzero;stroke:none;stroke-width:225.58209229;stroke-linecap:round;stroke-linejoin:round;stroke-miterlimit:4;stroke-dasharray:none;stroke-opacity:1;paint-order:stroke fill markers" r="250"/>
  </g>
  <g transform="matrix(0.630047, 0, 0, 0.629987, 160.670944, 349.981689)">
    <path cx="150" cy="147" r="150" id="path8376" style="opacity: 1; fill-opacity: 1; fill-rule: nonzero; stroke: none; stroke-width: 3.92256; stroke-linecap: butt; stroke-linejoin: miter; stroke-miterlimit: 4; stroke-dasharray: none; stroke-opacity: 1; paint-order: stroke;" d=""/>
    <path id="path1012" style="fill-opacity: 1; fill-rule: evenodd; stroke: none; stroke-width: 2.72987;" d="m 223.03304,-174.75079 c 25.00221,-1.61448 44.36672,-23.5041 44.36672,-47.8014 0,-26.78743 -21.78851,-48.67686 -48.44937,-48.67686 -26.60377,0 -48.38406,21.88943 -48.38406,48.67686 0,8.07167 1.60698,16.22561 5.62686,23.50392 16.95686,244.068984 16.95686,244.068984 16.95686,244.068984 178.34429,0 178.34429,0 178.34429,0 72.63734,171.876846 72.63734,171.876846 72.63734,171.876846 96.03284,-38.10985 96.03284,-38.10985 96.03284,-38.10985 -14.54387,-34.87548 -14.54387,-34.87548 -14.54387,-34.87548 -54.00831,19.4598 -54.00831,19.4598 -54.00831,19.4598 C 401.37182,-0.37302494 401.37182,-0.37302494 401.37182,-0.37302494 235.91546,0.44770608 235.91546,0.44770608 235.91546,0.44770608 c -2.424,-30.83674808 -2.424,-30.83674808 -2.424,-30.83674808 119.42821,0 119.42821,0 119.42821,0 0,-46.187105 0,-46.187105 0,-46.187105 -124.2489,0 -124.2489,0 -124.2489,0 z"/>
    <path id="path1014" style="fill-opacity: 1; fill-rule: evenodd; stroke: none; stroke-width: 2.72987;" d="m 402.16165,175.55642 c -29.87755,59.98829 -92.79174,98.90539 -159.7641,98.90539 -98.50581,0 -178.387871,-80.25553 -178.387871,-179.158231 0,-69.764821 41.147501,-133.791652 104.143581,-163.01449 4.02001,53.547487 4.02001,53.547487 4.02001,53.547487 -37.12766,23.4765652 -59.71144,65.641517 -59.71144,109.467003 0,72.107181 58.1045,130.481181 129.93572,130.481181 65.33824,0 121.03498,-50.22834 128.27977,-115.13101 z"/>
  </g>
</svg>