<?xml version="1.0" encoding="utf-8"?>
<svg width="702mm" height="702mm" viewBox="0 0 701.99998 702.00001" version="1.1" id="svg8" xmlns="http://www.w3.org/2000/svg">
  <defs id="defs2"/>
  <g id="layer1" transform="translate(-410.56454,876.3)">
    <circle cy="-525.29999" cx="761.56451" id="circle817" style="opacity:1;fill:#ffffff;fill-opacity:1;fill-rule:nonzero;stroke:none;stroke-width:225.58209229;stroke-linecap:round;stroke-linejoin:round;stroke-miterlimit:4;stroke-dasharray:none;stroke-opacity:1;paint-order:stroke fill markers" r="250"/>
  </g>
  <path style="opacity:1;fill:#000000;fill-opacity:1;fill-rule:nonzero;stroke:none;stroke-width:7.5999999;stroke-linecap:butt;stroke-linejoin:miter;stroke-miterlimit:8;stroke-dasharray:none;stroke-opacity:1;paint-order:normal" d="M 351 236.204 C 325.122 236.271 273.209 245.312 247.224 264.674 C 233.284 304.563 228.088 321.53 201 351.613 L 214.47 406.102 C 215.663 415.064 216.259 419.125 223.96 423.704 L 225.564 449.23 C 226.174 458.642 234.392 465.816 243.246 465.795 C 247.226 465.728 257.604 461.551 257.939 448.041 L 257.939 421.102 L 351 421.102 L 444.061 421.102 L 444.061 448.041 C 444.396 461.551 454.774 465.728 458.754 465.795 C 467.608 465.816 475.826 458.642 476.436 449.23 L 478.04 423.704 C 485.741 419.125 486.337 415.064 487.53 406.102 L 501 351.613 C 473.912 321.53 468.718 304.563 454.776 264.674 C 428.792 245.312 376.879 236.271 351 236.204 Z M 351 251.204 C 391.11 251.977 404.256 256.281 444.061 274.164 C 453.253 312.201 470.011 337.706 486 355.592 L 473.754 406.102 C 471.456 411.606 467.052 415.101 464.264 416.816 L 461.816 448.041 C 461.514 449.728 461.106 452.284 459.367 452.02 C 458.01 452.122 457.429 449.791 457.53 448.041 L 457.53 406.102 L 351 406.102 L 244.47 406.102 L 244.47 448.041 C 244.571 449.791 243.99 452.122 242.633 452.02 C 240.893 452.284 240.486 449.728 240.184 448.041 L 237.734 416.816 C 234.948 415.101 230.543 411.606 228.246 406.102 L 216 355.592 C 231.989 337.706 248.747 312.201 257.939 274.164 C 297.743 256.281 310.891 251.977 351 251.204 Z" id="rect25930"/>
</svg>