<?xml version="1.0" encoding="utf-8"?>
<svg width="702mm" height="702mm" viewBox="0 0 701.99998 702.00001" version="1.1" id="svg8" xmlns="http://www.w3.org/2000/svg">
  <defs id="defs2"/>
  <g id="layer1" transform="translate(-410.56454,876.3)">
    <circle cy="-525.29999" cx="761.56451" id="circle817" style="opacity:1;fill:#ffffff;fill-opacity:1;fill-rule:nonzero;stroke:none;stroke-width:225.58209229;stroke-linecap:round;stroke-linejoin:round;stroke-miterlimit:4;stroke-dasharray:none;stroke-opacity:1;paint-order:stroke fill markers" r="250"/>
  </g>
  <path d="M 159.309 281.448 C 155.854 281.448 151.688 285.799 151.675 291.117 L 151.675 396.293 L 211.051 396.293 C 211.236 409.744 222.193 420.552 235.645 420.552 C 249.099 420.552 260.056 409.745 260.242 396.293 L 418.01 396.293 C 418.196 409.744 429.152 420.552 442.605 420.552 C 456.058 420.552 467.014 409.744 467.2 396.293 L 472.292 396.293 L 550.325 384.927 L 550.325 301.295 C 550.307 292.002 539.334 281.515 527.679 281.448 L 159.309 281.448 Z M 162.361 297.733 L 190.862 297.733 C 193.845 297.746 196.114 299.907 196.121 302.313 L 196.121 369.32 C 196.134 375.646 191.167 383.581 184.076 383.57 L 163.889 383.57 C 163.062 383.574 162.361 382.348 162.361 381.195 L 162.361 297.733 Z M 207.655 305.706 L 280.091 305.706 L 280.091 332.339 L 207.655 332.339 L 207.655 305.706 Z M 292.476 305.706 L 364.912 305.706 L 364.912 332.339 L 292.476 332.339 L 292.476 305.706 Z M 377.294 305.706 L 449.73 305.706 L 449.73 332.339 L 377.294 332.339 L 377.294 305.706 Z M 462.113 305.706 L 534.549 305.706 L 534.549 332.339 L 462.113 332.339 L 462.113 305.706 Z" style="opacity:1;fill:#0046aa;fill-opacity:1;fill-rule:nonzero;stroke:none;stroke-width:6.00001;stroke-linecap:round;stroke-linejoin:miter;stroke-miterlimit:4;stroke-dasharray:none;stroke-opacity:1;paint-order:stroke fill markers" id="rect25583"/>
</svg>