<?xml version="1.0" encoding="utf-8"?>
<svg width="702mm" height="702mm" viewBox="0 0 702 702" version="1.1" id="svg8" xmlns="http://www.w3.org/2000/svg">
  <defs id="defs2"/>
  <g id="layer1" transform="translate(0,405)">
    <circle cy="-54" cx="351" id="circle817" style="opacity:1;fill:#ffffff;fill-opacity:1;fill-rule:nonzero;stroke:none;stroke-width:225.58209229;stroke-linecap:round;stroke-linejoin:round;stroke-miterlimit:4;stroke-dasharray:none;stroke-opacity:1;paint-order:stroke fill markers" r="250"/>
    <path style="opacity:1;fill:#f00a0a;fill-opacity:1;fill-rule:nonzero;stroke:none;stroke-width:79.80535126;stroke-linecap:round;stroke-linejoin:round;stroke-miterlimit:4;stroke-dasharray:none;stroke-opacity:1;paint-order:stroke fill markers" d="M 261.5 -193.86 C 252.278 -193.823 236.121 -186.87 233.3 -171.882 L 216.101 -68.186 C 206.348 -68.196 193.537 -55.841 193.5 -49.005 L 193.5 8.937 C 196.198 15.964 201.304 21.398 206.7 25.921 L 206.7 72.873 C 206.7 80.068 217.449 85.86 230.8 85.86 C 244.152 85.86 254.9 80.068 254.9 72.873 L 254.9 25.921 C 287.661 29.795 319.811 32.525 351 32.514 C 382.189 32.527 414.339 29.795 447.1 25.921 L 447.1 72.873 C 447.1 80.068 457.848 85.86 471.2 85.86 C 484.551 85.86 495.3 80.068 495.3 72.873 L 495.3 25.921 C 500.696 21.398 505.802 15.964 508.5 8.937 L 508.5 -49.005 C 508.463 -55.841 495.653 -68.196 485.901 -68.186 L 468.7 -171.882 C 465.879 -186.87 449.722 -193.823 440.5 -193.86 L 261.5 -193.86 Z M 281.535 -174.979 L 351 -174.979 L 420.465 -174.979 C 436.224 -174.969 453.055 -165.859 455.484 -154 L 465.864 -92.062 C 466.104 -90.525 465.097 -87.347 463.965 -85.569 C 461.662 -82.514 457.658 -80.769 451.765 -80.774 C 449.504 -80.774 437.565 -81.672 437.565 -81.672 C 394.788 -84.12 381.508 -84.021 351 -84.469 C 320.492 -84.021 307.214 -84.12 264.435 -81.672 C 264.435 -81.672 252.496 -80.774 250.235 -80.774 C 244.342 -80.767 240.338 -82.514 238.035 -85.569 C 236.903 -87.347 235.896 -90.525 236.136 -92.062 L 246.516 -154 C 248.945 -165.859 265.776 -174.969 281.535 -174.979 Z M 324.1 -55.798 L 377.9 -55.798 L 431.9 -51.002 L 431.881 -40.614 L 270.1 -40.614 L 270.1 -51.002 L 324.1 -55.798 Z M 233.5 -53.801 C 245.65 -53.801 255.5 -43.96 255.5 -31.823 C 255.5 -19.684 245.65 -9.845 233.5 -9.845 C 221.35 -9.845 211.5 -19.684 211.5 -31.823 C 211.5 -43.96 221.35 -53.801 233.5 -53.801 Z M 468.5 -53.801 C 480.65 -53.801 490.5 -43.96 490.5 -31.823 C 490.5 -19.684 480.65 -9.845 468.5 -9.845 C 456.35 -9.845 446.5 -19.684 446.5 -31.823 C 446.5 -43.96 456.35 -53.801 468.5 -53.801 Z M 270.121 -30.025 L 431.9 -30.025 L 431.9 -14.839 L 270.1 -14.839 L 270.121 -30.025 Z M 270.1 -4.25 L 431.881 -4.25 L 431.9 6.14 L 377.9 10.935 L 324.1 10.935 L 270.1 6.14 L 270.1 -4.25 Z" id="rect10823"/>
  </g>
</svg>