<?xml version="1.0" encoding="utf-8"?>
<svg width="702mm" height="702mm" viewBox="0 0 701.99998 702.00001" version="1.1" id="svg8" xmlns="http://www.w3.org/2000/svg">
  <defs id="defs2"/>
  <g id="layer1" transform="translate(-410.56454,876.3)">
    <circle cy="-525.29999" cx="761.56451" id="circle817" style="opacity:1;fill:#ffffff;fill-opacity:1;fill-rule:nonzero;stroke:none;stroke-width:225.58209229;stroke-linecap:round;stroke-linejoin:round;stroke-miterlimit:4;stroke-dasharray:none;stroke-opacity:1;paint-order:stroke fill markers" r="250"/>
  </g>
  <path d="M 345.285 172.406 C 343.303 172.419 341.811 172.479 340.774 172.534 C 336.997 173.029 333.684 173.234 329.41 177.617 L 299.108 211.918 C 288.313 220.903 278.415 234.807 275.919 245.602 L 274.877 250.091 C 272.197 262.013 268.543 288.674 267.841 306.491 L 261.643 333.34 L 290.622 340.03 L 296.821 313.181 L 436.887 345.518 L 430.689 372.367 L 459.669 379.057 L 465.867 352.209 C 473.046 335.888 481.45 310.323 484.268 298.432 L 485.31 293.943 C 487.802 283.147 484.999 266.31 479.235 253.502 L 467.036 209.389 C 465.118 203.577 462.229 201.941 459.051 199.84 C 454.203 197.164 437.804 188.59 401.331 180.051 C 371.654 173.296 353.876 172.37 345.287 172.411 L 345.285 172.406 Z M 343.378 179.594 C 349.401 180.258 377.163 185.198 398.983 190.202 C 420.788 195.27 447.906 203 453.613 205.044 C 456.8 206.741 457.635 207.628 459.148 212.306 L 471.033 258.817 L 304.146 220.288 L 335.218 183.695 C 338.628 180.153 339.769 179.722 343.378 179.594 Z M 254.413 348.958 C 238.241 353.105 215.778 376.246 215.778 395.465 C 215.778 419.535 264.537 433.079 304.128 433.08 C 302.756 453.266 311.718 479.046 312.292 484.107 C 313.316 492.118 313.645 503.452 306.751 512.974 L 294.36 529.594 L 321.913 529.594 C 330.16 516.052 333.524 506.074 333.053 496.499 C 331.901 472.191 323.184 443.371 324.83 434.392 C 352.29 438.003 374.763 439.723 396.56 449.554 C 400.345 451.737 406.988 454.245 408.952 464.863 C 410.488 477.16 400.06 497.881 389.707 519.972 L 414.346 529.594 C 426.123 506.262 435.213 490.676 435.194 464.717 C 435.194 455.059 426.92 445.368 413.179 438.62 C 393.331 429.948 368.849 427.563 335.764 423.457 C 372.025 402.936 370.25 409.261 457.209 386.135 L 428.343 373.743 C 386.392 382.396 325.21 395.003 309.668 420.542 C 280.511 418.279 249.269 410.873 244.645 404.213 C 241.588 399.897 241.39 394.354 246.108 386.135 C 254.389 373.692 259.521 367.857 276.433 353.186 L 254.413 348.958 Z" style="opacity:1;fill:#0046aa;fill-opacity:1;fill-rule:nonzero;stroke:none;stroke-width:58.1701;stroke-linecap:butt;stroke-linejoin:miter;stroke-miterlimit:4;stroke-dasharray:none;stroke-opacity:1;paint-order:normal" id="path25009"/>
</svg>