<?xml version="1.0" encoding="UTF-8" standalone="no"?>
<svg
   xmlns:dc="http://purl.org/dc/elements/1.1/"
   xmlns:cc="http://creativecommons.org/ns#"
   xmlns:rdf="http://www.w3.org/1999/02/22-rdf-syntax-ns#"
   xmlns:svg="http://www.w3.org/2000/svg"
   xmlns="http://www.w3.org/2000/svg"
   xmlns:sodipodi="http://sodipodi.sourceforge.net/DTD/sodipodi-0.dtd"
   xmlns:inkscape="http://www.inkscape.org/namespaces/inkscape"
   sodipodi:docname="Vietnam_road_sign_R303.svg"
   inkscape:version="1.0 (4035a4fb49, 2020-05-01)"
   id="svg8"
   version="1.1"
   viewBox="0 0 702 702"
   height="702mm"
   width="702mm">
  <defs
     id="defs2" />
  <sodipodi:namedview
     inkscape:document-rotation="0"
     inkscape:window-maximized="1"
     inkscape:window-y="-9"
     inkscape:window-x="-9"
     inkscape:window-height="1001"
     inkscape:window-width="1920"
     showgrid="false"
     inkscape:current-layer="layer1"
     inkscape:document-units="mm"
     inkscape:cy="2900.6991"
     inkscape:cx="2961.0366"
     inkscape:zoom="0.10673648"
     inkscape:pageshadow="2"
     inkscape:pageopacity="0.0"
     borderopacity="1.0"
     bordercolor="#666666"
     pagecolor="#ffffff"
     id="base" />
  <metadata
     id="metadata5">
    <rdf:RDF>
      <cc:Work
         rdf:about="">
        <dc:format>image/svg+xml</dc:format>
        <dc:type
           rdf:resource="http://purl.org/dc/dcmitype/StillImage" />
        <dc:title></dc:title>
      </cc:Work>
    </rdf:RDF>
  </metadata>
  <g
     transform="translate(-1719.8669,433.41387)"
     id="layer1"
     inkscape:groupmode="layer"
     inkscape:label="Layer 1">
    <circle
       transform="scale(-1,1)"
       r="350.00003"
       style="opacity:1;fill:#0046aa;fill-opacity:1;fill-rule:nonzero;stroke:none;stroke-width:315.815;stroke-linecap:round;stroke-linejoin:round;stroke-miterlimit:4;stroke-dasharray:none;stroke-opacity:1;paint-order:stroke fill markers"
       id="circle15556"
       cx="-2070.8669"
       cy="-82.413864" />
    <circle
       transform="scale(-1,1)"
       r="350.5"
       style="opacity:1;fill:none;fill-opacity:1;fill-rule:nonzero;stroke:#29ffff;stroke-width:1.00001;stroke-linecap:round;stroke-linejoin:round;stroke-miterlimit:4;stroke-dasharray:none;stroke-opacity:1;paint-order:stroke fill markers"
       id="circle15558"
       cx="-2070.8669"
       cy="-82.413864" />
    <path
       d="m 2065.4202,-326.34483 a 245.42643,245.42643 0 0 0 -160.8403,59.78051 l -21.7198,-25.11713 10.3218,69.32474 67.1093,20.22196 -21.7176,-25.11713 a 193.45382,193.45382 0 0 1 90.1193,-43.6618 193.45382,193.45382 0 0 1 182.7493,63.46067 l 39.3122,-33.99396 a 245.42643,245.42643 0 0 0 -174.6207,-84.65062 245.42643,245.42643 0 0 0 -10.7135,-0.24769 z m -232.158,164.91632 a 245.42643,245.42643 0 0 0 14.001,193.550846 245.42643,245.42643 0 0 0 137.3349,118.803504 l -10.8936,31.36782 54.8759,-43.60191 -16.0411,-68.229024 -10.8936,31.367994 a 193.45382,193.45382 0 0 1 -126.5336,-146.333544 193.45382,193.45382 0 0 1 7.2459,-99.876356 z m 440.2973,2.33838 -51.066,48.00688 32.6089,-6.25069 a 193.45382,193.45382 0 0 1 -153.5786,226.41082 l 9.7813,51.04328 a 245.42643,245.42643 0 0 0 160.6197,-108.900134 245.42643,245.42643 0 0 0 34.2234,-178.336866 l 32.6089,-6.25069 z"
       style="opacity:1;fill:#ffffff;fill-opacity:1;fill-rule:nonzero;stroke:none;stroke-width:264.249;stroke-linecap:butt;stroke-linejoin:miter;stroke-miterlimit:1.414;stroke-dasharray:none;stroke-opacity:1;paint-order:stroke fill markers"
       id="path7203-5" />
  </g>
</svg>
