<?xml version="1.0" encoding="UTF-8" standalone="no"?>
<svg
   xmlns:dc="http://purl.org/dc/elements/1.1/"
   xmlns:cc="http://creativecommons.org/ns#"
   xmlns:rdf="http://www.w3.org/1999/02/22-rdf-syntax-ns#"
   xmlns:svg="http://www.w3.org/2000/svg"
   xmlns="http://www.w3.org/2000/svg"
   xmlns:sodipodi="http://sodipodi.sourceforge.net/DTD/sodipodi-0.dtd"
   xmlns:inkscape="http://www.inkscape.org/namespaces/inkscape"
   sodipodi:docname="Vietnam_road_sign_S502.svg"
   inkscape:version="1.0 (4035a4fb49, 2020-05-01)"
   id="svg5907"
   version="1.1"
   viewBox="0 0 577.31952 348.61499"
   height="348.61499mm"
   width="577.31952mm">
  <defs
     id="defs5901" />
  <sodipodi:namedview
     inkscape:window-maximized="1"
     inkscape:window-y="-9"
     inkscape:window-x="-9"
     inkscape:window-height="1001"
     inkscape:window-width="1920"
     showgrid="false"
     inkscape:document-rotation="0"
     inkscape:current-layer="layer1"
     inkscape:document-units="mm"
     inkscape:cy="823.09563"
     inkscape:cx="1357.3362"
     inkscape:zoom="0.39288621"
     inkscape:pageshadow="2"
     inkscape:pageopacity="0.0"
     borderopacity="1.0"
     bordercolor="#666666"
     pagecolor="#ffffff"
     id="base" />
  <metadata
     id="metadata5904">
    <rdf:RDF>
      <cc:Work
         rdf:about="">
        <dc:format>image/svg+xml</dc:format>
        <dc:type
           rdf:resource="http://purl.org/dc/dcmitype/StillImage" />
        <dc:title></dc:title>
      </cc:Work>
    </rdf:RDF>
  </metadata>
  <g
     transform="translate(-616.4737,133.48614)"
     id="layer1"
     inkscape:groupmode="layer"
     inkscape:label="Layer 1">
    <path
       id="rect5235"
       style="opacity:1;fill:#000000;fill-rule:evenodd;stroke:none;stroke-width:5.505;stroke-linejoin:round;stroke-miterlimit:4;stroke-dasharray:none;stroke-opacity:1;paint-order:stroke fill markers"
       d="m 619.2262,-130.73364 h 571.8145 v 343.11 H 619.2262 Z"
       sodipodi:nodetypes="ccccc" />
    <path
       id="rect5237"
       style="opacity:1;fill:#ffffff;fill-opacity:1;fill-rule:evenodd;stroke-width:0.305001;stroke-linejoin:round;paint-order:stroke fill markers"
       d="M 631.13469,-118.81191 H 1179.1101 V 200.42368 H 631.13469 Z"
       sodipodi:nodetypes="ccccc" />
    <path
       d="m 829.66821,-38.65228 c -17.85774,0 -32.23418,14.37644 -32.23418,32.23418 v 97.50306 c 0,17.85774 14.37644,32.23418 32.23418,32.23418 h 3.95709 c 17.85774,0 32.23418,-14.37644 32.23418,-32.23418 V -6.4181 c 0,-17.85774 -14.37644,-32.23418 -32.23418,-32.23418 z m 1.97392,22.23435 c 6.03851,0 10.90298,4.86446 10.90298,10.90298 v 94.71912 c 0,6.03864 -4.86447,10.90311 -10.90298,10.90311 -6.03851,0 -10.89373,-4.86447 -10.89373,-10.90311 V -5.51495 c 0,-6.03852 4.85522,-10.90298 10.89373,-10.90298 z"
       style="opacity:1;fill:#000000;fill-opacity:1;fill-rule:evenodd;stroke-width:0.305001;stroke-linejoin:round;paint-order:stroke fill markers"
       id="path5205" />
    <path
       id="path5207"
       style="opacity:1;fill:#000000;fill-opacity:1;fill-rule:evenodd;stroke-width:0.305001;stroke-linejoin:round;paint-order:stroke fill markers"
       d="m 906.42015,-38.65228 c -17.85761,0 -32.23405,14.37644 -32.23405,32.23418 v 97.50306 c 0,17.85774 14.37644,32.23418 32.23405,32.23418 h 3.95709 c 17.85774,0 32.23418,-14.37644 32.23418,-32.23418 V -6.4181 c 0,-17.85774 -14.37644,-32.23418 -32.23418,-32.23418 z m 1.97392,22.23435 c 6.03851,0 10.90298,4.86446 10.90298,10.90298 v 94.71912 c 0,6.03864 -4.86447,10.90311 -10.90298,10.90311 -6.03851,0 -10.89373,-4.86447 -10.89373,-10.90311 V -5.51495 c 0,-6.03852 4.85522,-10.90298 10.89373,-10.90298 z" />
    <path
       d="m 1042.2906,7.08256 c -8.8641,0 -16.6069,4.79626 -21.0612,12.05763 V 8.53509 h -23.07226 v 114.20679 h 19.04076 4.0315 V 40.64827 c 0,-6.29426 5.0651,-11.36861 11.3592,-11.36861 6.2942,0 11.3594,5.07435 11.3594,11.36861 v 82.09361 h 22.9791 V 40.64827 c 0,-6.29426 5.065,-11.36861 11.3592,-11.36861 6.2942,0 11.3687,5.07435 11.3687,11.36861 v 82.09361 h 22.9603 l 0.026,-89.30951 c 0,-14.60085 -11.7579,-26.34981 -26.359,-26.34981 h -1.0431 c -9.2277,0 -17.3149,4.70198 -22.0201,11.8435 -4.959,-7.88552 -12.1555,-11.8435 -20.9308,-11.8435 z"
       style="opacity:1;fill:#000000;fill-opacity:1;fill-rule:evenodd;stroke-width:0.305001;stroke-linejoin:round;paint-order:stroke fill markers"
       id="path5209" />
    <path
       id="path5211"
       style="opacity:1;fill:#000000;fill-opacity:1;fill-rule:evenodd;stroke-width:0.305001;stroke-linejoin:round;paint-order:stroke fill markers"
       d="m 748.62779,-38.65048 c -17.85787,0 -32.2338,14.37606 -32.2338,32.2338 V 9.00317 h 22.98052 V -4.3192 c 0,-6.28347 5.06061,-11.34421 11.34421,-11.34421 6.28347,0 11.34421,5.06074 11.34421,11.34421 V 9.00317 c -0.28002,2.5341 -0.64482,5.06626 -1.56659,7.60049 0,0 -1.02119,2.38111 -3.12652,6.49182 -8.07139,15.76051 -28.99887,56.24116 -40.54436,78.78546 v 21.02895 H 784.831 V 100.1286 h -41.24148 c 0,0 18.46956,-36.04162 27.70678,-54.05928 3.54886,-6.92213 8.07743,-14.87663 10.91274,-21.90512 0.98779,-2.44804 1.45651,-4.71958 2.03776,-6.88347 0.71804,-2.67167 0.57032,-8.27756 0.57032,-8.27756 V -6.41668 c 0,-17.85774 -14.37593,-32.23393 -32.23366,-32.2338 z" />
  </g>
</svg>
