<?xml version="1.0" encoding="UTF-8" standalone="no"?>
<svg
   xmlns:dc="http://purl.org/dc/elements/1.1/"
   xmlns:cc="http://creativecommons.org/ns#"
   xmlns:rdf="http://www.w3.org/1999/02/22-rdf-syntax-ns#"
   xmlns:svg="http://www.w3.org/2000/svg"
   xmlns="http://www.w3.org/2000/svg"
   xmlns:sodipodi="http://sodipodi.sourceforge.net/DTD/sodipodi-0.dtd"
   xmlns:inkscape="http://www.inkscape.org/namespaces/inkscape"
   width="400mm"
   height="399.51242mm"
   viewBox="0 0 400 399.51241"
   version="1.1"
   id="svg4599"
   inkscape:version="1.0 (4035a4fb49, 2020-05-01)"
   sodipodi:docname="Vietnam_road_sign_S505b.svg">
  <defs
     id="defs4593" />
  <sodipodi:namedview
     id="base"
     pagecolor="#ffffff"
     bordercolor="#666666"
     borderopacity="1.0"
     inkscape:pageopacity="0.0"
     inkscape:pageshadow="2"
     inkscape:zoom="0.25880647"
     inkscape:cx="1594.8893"
     inkscape:cy="1100.4361"
     inkscape:document-units="mm"
     inkscape:current-layer="layer1"
     inkscape:document-rotation="0"
     showgrid="false"
     inkscape:window-width="1920"
     inkscape:window-height="1001"
     inkscape:window-x="-9"
     inkscape:window-y="-9"
     inkscape:window-maximized="1" />
  <metadata
     id="metadata4596">
    <rdf:RDF>
      <cc:Work
         rdf:about="">
        <dc:format>image/svg+xml</dc:format>
        <dc:type
           rdf:resource="http://purl.org/dc/dcmitype/StillImage" />
        <dc:title></dc:title>
      </cc:Work>
    </rdf:RDF>
  </metadata>
  <g
     inkscape:label="Layer 1"
     inkscape:groupmode="layer"
     id="layer1"
     transform="translate(-266.6727,-122.23022)">
    <rect
       style="opacity:1;fill:#000000;fill-opacity:1;fill-rule:evenodd;stroke-width:0.3;paint-order:stroke fill markers"
       id="rect12547"
       width="400"
       height="399.51242"
       x="266.6727"
       y="122.23022" />
    <rect
       style="opacity:1;fill:#ffffff;fill-opacity:1;fill-rule:evenodd;stroke-width:0.3;paint-order:stroke fill markers"
       id="rect12549"
       width="385.33719"
       height="385.31982"
       x="273.76044"
       y="129.32346" />
    <path
       sodipodi:nodetypes="cccccssccsccccccssssssssssssssssscsssssscsssccccccccccccccccccssccsccccccsssssssssssssssssssssssssssscccccccccccccccccccccccccccccssccsccccccsssssssssssssssssssssssssssscccccccccccccccccccc"
       id="path12395"
       style="opacity:1;fill:#000000;fill-opacity:1;fill-rule:nonzero;stroke:none;stroke-width:0.0420687;stroke-linecap:round;stroke-linejoin:round;stroke-miterlimit:10;stroke-dasharray:none;stroke-opacity:1;paint-order:stroke fill markers"
       d="m 613.68695,136.6086 v 8.62012 h -2.85596 v 4.47541 h 2.85596 v 17.24013 c 0,3.02198 1.73582,6.65807 6.88441,6.65807 h 2.35093 v -5.37517 c -2.5183,0 -3.52353,-0.16849 -3.52353,-2.79788 v -15.72515 h 3.52353 v -4.47541 h -3.52353 v -8.62012 z m -66.4239,18.72613 c -7.53805,0 -14.14614,5.39223 -14.14614,14.2333 v 38.90343 c 0,8.84107 6.60809,14.23915 14.14614,14.23915 7.53817,0 14.14625,-5.39808 14.14625,-14.23915 v -38.90343 c 0,-8.84095 -6.60808,-14.2333 -14.14625,-14.2333 z m 32.1874,0 c -7.53806,0 -14.14614,5.39235 -14.14614,14.2333 v 38.90343 c 0,8.84107 6.60808,14.23915 14.14614,14.23915 7.53817,0 14.14625,-5.39808 14.14625,-14.23915 v -38.90343 c 0,-8.84095 -6.60808,-14.2333 -14.14625,-14.2333 z m -32.1874,9.49078 c 2.69893,0 4.64963,2.0436 4.64963,4.74252 v 38.90343 c 0,2.69882 -1.9507,4.74815 -4.64963,4.74837 -2.69881,0 -4.65536,-2.04955 -4.65536,-4.74837 v -38.90343 c 0,-2.69881 1.95655,-4.74252 4.65536,-4.74252 z m 32.1874,0 c 2.69881,0 4.64963,2.04371 4.64963,4.74252 v 38.90343 c 0,2.69882 -1.95082,4.74826 -4.64963,4.74837 -2.69882,0 -4.65536,-2.04955 -4.65536,-4.74837 v -38.90343 c 0,-2.69881 1.95654,-4.74252 4.65536,-4.74252 z m -245.80821,10.41951 v 6.87296 h -13.18842 c -5.00033,5.30563 -7.49886,11.17695 -8.77098,17.68124 h -8.77682 v 19.17309 h -2.92561 V 221.66 h 33.66183 v -4.18526 h 74.09192 v -42.22972 z m 280.04471,94.83233 v 8.62012 h -2.85596 v 4.47541 h 2.85596 v 17.2344 c 0,3.02198 1.73582,6.6638 6.88441,6.6638 h 2.35093 v -5.37517 c -2.5183,0 -3.52353,-0.16849 -3.52353,-2.79788 v -15.72515 h 3.52353 v -4.47541 h -3.52353 v -8.62012 z m -66.4239,18.39532 c -7.53805,0 -14.14614,5.39808 -14.14614,14.23903 v 38.89771 c 0,8.84107 6.60809,14.23903 14.14614,14.23903 7.53817,0 14.14625,-5.39796 14.14625,-14.23903 V 302.7117 c 0,-8.84095 -6.60808,-14.23903 -14.14625,-14.23903 z m 32.1874,0 c -7.53806,0 -14.14614,5.39808 -14.14614,14.23903 v 38.89771 c 0,8.84107 6.60808,14.23903 14.14614,14.23903 7.53817,0 14.14625,-5.39796 14.14625,-14.23903 V 302.7117 c 0,-8.84095 -6.60808,-14.23903 -14.14625,-14.23903 z m -32.1874,9.49078 c 2.69893,0 4.64963,2.04944 4.64963,4.74825 v 38.89771 c 0,2.69881 -1.9507,4.74825 -4.64963,4.74825 -2.69881,0 -4.65536,-2.04944 -4.65536,-4.74825 V 302.7117 c 0,-2.69881 1.95655,-4.74825 4.65536,-4.74825 z m 32.1874,0 c 2.69881,0 4.64963,2.04944 4.64963,4.74825 v 38.89771 c 0,2.69881 -1.95082,4.74825 -4.64963,4.74825 -2.69882,0 -4.65536,-2.04944 -4.65536,-4.74825 V 302.7117 c 0,-2.69881 1.95654,-4.74825 4.65536,-4.74825 z m -245.80821,17.86703 v 0.0337 h -13.18842 c -5.00033,5.30563 -7.49886,11.17122 -8.77098,17.67552 h -8.77682 v 19.17308 h -2.92561 v 2.68758 h 33.90558 v -0.0449 h 36.47614 l -3.34259,-2.64119 h -33.13355 v -1.49768 -35.38574 z m 2.60637,0 v 34.07397 h 31.218 l 5.86278,4.73668 h 126.7817 V 315.83048 H 377.03276 Z m 277.43834,87.17004 v 8.62001 h -2.85596 v 4.47552 h 2.85596 v 17.23428 c 0,3.0221 1.73582,6.65807 6.88441,6.65807 h 2.35093 v -5.36932 c -2.5183,0 -3.52353,-0.16737 -3.52353,-2.798 v -15.72503 h 3.52353 v -4.47552 h -3.52353 v -8.62001 z m -66.4239,18.31983 c -7.53805,0 -14.14614,5.39808 -14.14614,14.23904 v 38.8977 c 0,8.84096 6.60809,14.23903 14.14614,14.23903 7.53817,0 14.14625,-5.39807 14.14625,-14.23903 v -38.8977 c 0,-8.84096 -6.60808,-14.23904 -14.14625,-14.23904 z m 32.1874,0 c -7.53806,0 -14.14614,5.39808 -14.14614,14.23904 v 38.8977 c 0,8.84096 6.60808,14.23903 14.14614,14.23903 7.53817,0 14.14625,-5.39807 14.14625,-14.23903 v -38.8977 c 0,-8.84096 -6.60808,-14.23904 -14.14625,-14.23904 z m -32.1874,9.49078 c 2.69893,0 4.64963,2.04944 4.64963,4.74826 v 38.8977 c 0,2.69881 -1.9507,4.74825 -4.64963,4.74825 -2.69881,0 -4.65536,-2.04944 -4.65536,-4.74825 v -38.8977 c 0,-2.69882 1.95655,-4.74826 4.65536,-4.74826 z m 32.1874,0 c 2.69881,0 4.64963,2.04944 4.64963,4.74826 v 38.8977 c 0,2.69881 -1.95082,4.74825 -4.64963,4.74825 -2.69882,0 -4.65536,-2.04944 -4.65536,-4.74825 v -38.8977 c 0,-2.69882 1.95654,-4.74826 4.65536,-4.74826 z m -245.80821,10.46018 v 6.87285 h -13.18842 c -5.00033,5.30563 -7.49886,11.17706 -8.77098,17.68124 h -8.77682 v 19.17308 h -2.92561 v 2.68758 h 33.66183 v -4.18515 h 70.92829 3.16363 16.61906 88.9172 v -42.2296 h -101.8038 v 39.26333 h -3.73246 v -39.26333 z" />
  </g>
</svg>
