<?xml version="1.0" encoding="UTF-8" standalone="no"?>
<svg
   xmlns:dc="http://purl.org/dc/elements/1.1/"
   xmlns:cc="http://creativecommons.org/ns#"
   xmlns:rdf="http://www.w3.org/1999/02/22-rdf-syntax-ns#"
   xmlns:svg="http://www.w3.org/2000/svg"
   xmlns="http://www.w3.org/2000/svg"
   xmlns:sodipodi="http://sodipodi.sourceforge.net/DTD/sodipodi-0.dtd"
   xmlns:inkscape="http://www.inkscape.org/namespaces/inkscape"
   width="555.08997mm"
   height="358.09613mm"
   viewBox="0 0 555.08997 358.09615"
   version="1.1"
   id="svg848"
   inkscape:version="1.0 (4035a4fb49, 2020-05-01)"
   sodipodi:docname="Vietnam_road_sign_S508b.svg">
  <defs
     id="defs842">
    <clipPath
       id="clip88">
      <path
         id="path1418"
         d="M 361,1.980469 H 581 V 151 H 361 Z m 0,0" />
    </clipPath>
    <clipPath
       id="clip90">
      <path
         id="path1424"
         d="M 376,1.980469 H 587 V 151 H 376 Z m 0,0" />
    </clipPath>
    <clipPath
       id="clip91">
      <path
         id="path1427"
         d="M 383,1.980469 H 595 V 151 H 383 Z m 0,0" />
    </clipPath>
    <clipPath
       id="clip92">
      <path
         id="path1430"
         d="M 389,1.980469 H 600 V 151 H 389 Z m 0,0" />
    </clipPath>
    <clipPath
       id="clip93">
      <path
         id="path1433"
         d="M 395,1.980469 H 610.73828 V 151 H 395 Z m 0,0" />
    </clipPath>
    <clipPath
       id="clip94">
      <path
         id="path1436"
         d="M 407,1.980469 H 610.73828 V 151 H 407 Z m 0,0" />
    </clipPath>
    <clipPath
       id="clip95">
      <path
         id="path1439"
         d="M 413,1.980469 H 610.73828 V 151 H 413 Z m 0,0" />
    </clipPath>
    <clipPath
       id="clip96">
      <path
         id="path1442"
         d="M 415,1.980469 H 610.73828 V 151 H 415 Z m 0,0" />
    </clipPath>
    <clipPath
       id="clip132">
      <path
         id="path1550"
         d="M 149,1.980469 H 360 V 186 H 149 Z m 0,0" />
    </clipPath>
    <clipPath
       id="clip133">
      <path
         id="path1553"
         d="M 155,1.980469 H 366 V 186 H 155 Z m 0,0" />
    </clipPath>
    <clipPath
       id="clip135">
      <path
         id="path1559"
         d="M 164,1.980469 H 375 V 186 H 164 Z m 0,0" />
    </clipPath>
    <clipPath
       id="clip136">
      <path
         id="path1562"
         d="M 167,1.980469 H 378 V 186 H 167 Z m 0,0" />
    </clipPath>
    <clipPath
       id="clip137">
      <path
         id="path1565"
         d="M 170,1.980469 H 381 V 186 H 170 Z m 0,0" />
    </clipPath>
    <clipPath
       id="clip138">
      <path
         id="path1568"
         d="M 177,1.980469 H 388 V 186 H 177 Z m 0,0" />
    </clipPath>
    <clipPath
       id="clip140">
      <path
         id="path1574"
         d="M 185,1.980469 H 397 V 186 H 185 Z m 0,0" />
    </clipPath>
    <clipPath
       id="clip141">
      <path
         id="path1577"
         d="M 191,1.980469 H 402 V 186 H 191 Z m 0,0" />
    </clipPath>
  </defs>
  <sodipodi:namedview
     id="base"
     pagecolor="#ffffff"
     bordercolor="#666666"
     borderopacity="1.0"
     inkscape:pageopacity="0.0"
     inkscape:pageshadow="2"
     inkscape:zoom="0.22514427"
     inkscape:cx="969.65146"
     inkscape:cy="-140.03925"
     inkscape:document-units="mm"
     inkscape:current-layer="layer1"
     showgrid="false"
     inkscape:snap-global="false"
     inkscape:window-width="1920"
     inkscape:window-height="1001"
     inkscape:window-x="-9"
     inkscape:window-y="-9"
     inkscape:window-maximized="1"
     fit-margin-top="0"
     fit-margin-left="0"
     fit-margin-right="0"
     fit-margin-bottom="0"
     showguides="false"
     inkscape:measure-start="0,0"
     inkscape:measure-end="0,0"
     inkscape:document-rotation="0" />
  <metadata
     id="metadata845">
    <rdf:RDF>
      <cc:Work
         rdf:about="">
        <dc:format>image/svg+xml</dc:format>
        <dc:type
           rdf:resource="http://purl.org/dc/dcmitype/StillImage" />
        <dc:title></dc:title>
      </cc:Work>
    </rdf:RDF>
  </metadata>
  <g
     inkscape:label="Layer 1"
     inkscape:groupmode="layer"
     id="layer1"
     transform="translate(402.87543,-376.0305)">
    <g
       transform="matrix(3.1348564,0,0,3.1348564,-1084.4128,-697.93945)"
       id="g26482"
       style="opacity:1;stroke-width:0.112534">
      <path
         style="color:#000000;font-style:normal;font-variant:normal;font-weight:normal;font-stretch:normal;font-size:medium;line-height:normal;font-family:sans-serif;font-variant-ligatures:normal;font-variant-position:normal;font-variant-caps:normal;font-variant-numeric:normal;font-variant-alternates:normal;font-variant-east-asian:normal;font-feature-settings:normal;font-variation-settings:normal;text-indent:0;text-align:start;text-decoration:none;text-decoration-line:none;text-decoration-style:solid;text-decoration-color:#000000;letter-spacing:normal;word-spacing:normal;text-transform:none;writing-mode:lr-tb;direction:ltr;text-orientation:mixed;dominant-baseline:auto;baseline-shift:baseline;text-anchor:start;white-space:normal;shape-padding:0;shape-margin:0;inline-size:0;clip-rule:nonzero;display:inline;overflow:visible;visibility:visible;isolation:auto;mix-blend-mode:normal;color-interpolation:sRGB;color-interpolation-filters:linearRGB;solid-color:#000000;solid-opacity:1;vector-effect:none;fill:#000000;fill-opacity:1;fill-rule:evenodd;stroke:none;stroke-width:0.0844005;stroke-linecap:butt;stroke-linejoin:miter;stroke-miterlimit:4;stroke-dasharray:none;stroke-dashoffset:0;stroke-opacity:1;paint-order:stroke fill markers;color-rendering:auto;image-rendering:auto;shape-rendering:auto;text-rendering:auto;enable-background:accumulate;stop-color:#000000;stop-opacity:1"
         d="m 217.40625,342.58984 v 0.375 113.85547 H 394.47656 V 342.58984 Z m 0.75,0.75 H 393.72656 V 456.07031 H 218.15625 Z"
         id="path26484" />
      <path
         style="color:#000000;font-style:normal;font-variant:normal;font-weight:normal;font-stretch:normal;font-size:medium;line-height:normal;font-family:sans-serif;font-variant-ligatures:normal;font-variant-position:normal;font-variant-caps:normal;font-variant-numeric:normal;font-variant-alternates:normal;font-variant-east-asian:normal;font-feature-settings:normal;font-variation-settings:normal;text-indent:0;text-align:start;text-decoration:none;text-decoration-line:none;text-decoration-style:solid;text-decoration-color:#000000;letter-spacing:normal;word-spacing:normal;text-transform:none;writing-mode:lr-tb;direction:ltr;text-orientation:mixed;dominant-baseline:auto;baseline-shift:baseline;text-anchor:start;white-space:normal;shape-padding:0;shape-margin:0;inline-size:0;clip-rule:nonzero;display:inline;overflow:visible;visibility:visible;isolation:auto;mix-blend-mode:normal;color-interpolation:sRGB;color-interpolation-filters:linearRGB;solid-color:#000000;solid-opacity:1;vector-effect:none;fill:#ffffff;fill-opacity:1;fill-rule:evenodd;stroke:none;stroke-width:0.0844005;stroke-linecap:butt;stroke-linejoin:miter;stroke-miterlimit:4;stroke-dasharray:none;stroke-dashoffset:0;stroke-opacity:1;paint-order:stroke fill markers;color-rendering:auto;image-rendering:auto;shape-rendering:auto;text-rendering:auto;enable-background:accumulate;stop-color:#000000;stop-opacity:1"
         d="M 217.78125,342.96484 H 394.10156 V 456.44531 H 217.78125 Z"
         id="path26486" />
    </g>
    <g
       aria-label="16"
       id="text25745"
       style="font-size:35.4136px;line-height:1.46;font-family:'Singapore Road Signs';-inkscape-font-specification:'Singapore Road Signs';text-align:center;text-anchor:middle;opacity:1;fill:#a02c2c;stroke-width:0.112506;stroke-miterlimit:4;stroke-dasharray:none"
       transform="matrix(3.1348564,0,0,3.1348564,-1084.4128,-707.34399)">
      <path
         id="path25747"
         style="font-style:normal;font-variant:normal;font-weight:normal;font-stretch:normal;font-family:DINSchrift;-inkscape-font-specification:DINSchrift;opacity:1;fill:#000000;stroke-width:0.150008;stroke-miterlimit:4;stroke-dasharray:none"
         d="m 365.22461,490.88281 c -3.96073,0 -7.26172,3.16035 -7.26172,7.1211 v 2.78125 h 4.81055 v -2.73438 c 0,-0.99019 0.65995,-2.35742 2.35742,-2.35742 1.46169,0 2.35742,0.99002 2.35742,2.35742 v 4.33789 c 0,2.49904 -0.94406,2.92383 -3.82031,2.92383 v 4.24414 c 3.11201,0 3.82031,0.56487 3.82031,3.1582 v 4.8086 c 0,1.6503 -0.89573,2.68945 -2.35742,2.68945 -1.46171,0 -2.35742,-1.0849 -2.35742,-2.59375 v -2.5 h -4.81055 v 2.73438 c 0,5.28098 4.05429,7.16796 7.11914,7.16796 2.9234,0 4.76262,-1.31985 5.94141,-3.06445 0.99018,-1.46171 1.2734,-2.45251 1.27344,-6.88476 0,-4.76231 -1.6e-4,-5.84663 -2.97071,-7.68555 2.73479,-1.65031 2.97056,-2.40454 2.97071,-7.02539 0,-4.2908 -0.5648,-5.61029 -1.8379,-7.11914 -0.84872,-1.03734 -2.64102,-2.35938 -5.23437,-2.35938 z m 103.79883,0 c -3.96074,0 -7.25977,3.16035 -7.25977,7.1211 v 2.78125 h 4.8086 v -2.73438 c 0,-0.99019 0.65996,-2.35742 2.35742,-2.35742 1.4617,0 2.35742,0.99002 2.35742,2.35742 v 4.33789 c 0,2.49904 -0.94212,2.92383 -3.81836,2.92383 v 4.24414 c 3.112,0 3.81836,0.56487 3.81836,3.1582 v 4.8086 c 0,1.6503 -0.89572,2.68945 -2.35742,2.68945 -1.4617,0 -2.35742,-1.0849 -2.35742,-2.59375 v -2.5 h -4.8086 v 2.73438 c 0,5.28098 4.05429,7.16796 7.11914,7.16796 2.9234,0 4.76261,-1.31985 5.94141,-3.06445 0.99017,-1.46171 1.27344,-2.45251 1.27344,-6.88476 0,-4.76231 -1.5e-4,-5.84663 -2.97071,-7.68555 2.7348,-1.65031 2.97071,-2.40454 2.97071,-7.02539 0,-4.2908 -0.56675,-5.61029 -1.83985,-7.11914 -0.84873,-1.03734 -2.64104,-2.35938 -5.23437,-2.35938 z m -87.2168,0.0332 c -3.74943,0 -6.76953,3.02018 -6.76953,6.76953 v 20.4707 c 0,3.74933 3.02009,6.76758 6.76953,6.76758 h 0.83008 c 3.74949,0 6.76758,-3.01825 6.76758,-6.76758 v -20.4707 c 0,-3.74935 -3.01809,-6.76953 -6.76758,-6.76953 z m 53.29883,0 c -3.74943,0 -6.76758,3.02018 -6.76758,6.76953 v 20.4707 c 0,3.74933 3.01814,6.76758 6.76758,6.76758 h 0.83203 c 3.74949,0 6.76758,-3.01825 6.76758,-6.76758 v -20.4707 c 0,-3.74935 -3.01809,-6.76953 -6.76758,-6.76953 z m 50.30078,0 c -3.74943,0 -6.76758,3.02018 -6.76758,6.76953 v 20.4707 c 0,3.74933 3.01814,6.76758 6.76758,6.76758 h 0.83008 c 3.74949,0 6.76758,-3.01825 6.76758,-6.76758 v -20.4707 c 0,-3.74935 -3.01809,-6.76953 -6.76758,-6.76953 z m -161.72852,0.2539 v 8.40039 h 4.22461 v -3.93164 h 5.33204 l -8.15626,29.09766 h 5.08985 l 7.86328,-29.19727 v -4.36914 z m 93.60352,0 -4.79297,3.50977 v 5.08789 l 4.79297,-3.5625 v 28.53125 h 4.76563 v -33.56641 z m -35.06055,4.41602 c 1.26792,0 2.28907,1.02135 2.28907,2.28906 v 19.88672 c 0,1.26768 -1.02115,2.28906 -2.28907,2.28906 -1.26789,0 -2.28711,-1.02138 -2.28711,-2.28906 V 497.875 c 0,-1.26768 1.01922,-2.28906 2.28711,-2.28906 z m 53.29883,0 c 1.26792,0 2.29102,1.02135 2.29102,2.28906 v 19.88672 c 0,1.26768 -1.0231,2.28906 -2.29102,2.28906 -1.26789,0 -2.28711,-1.02138 -2.28711,-2.28906 V 497.875 c 0,-1.26768 1.01922,-2.28906 2.28711,-2.28906 z m 50.30078,0 c 1.26792,0 2.28893,1.02135 2.28907,2.28906 v 19.88672 c 0,1.26768 -1.02115,2.28906 -2.28907,2.28906 -1.26789,0 -2.28711,-1.02138 -2.28711,-2.28906 V 497.875 c 0,-1.26768 1.01922,-2.28906 2.28711,-2.28906 z m -140.27343,9.41601 v 4.79297 h 4.79101 v -4.79297 z m 103.84374,0 v 4.79297 h 4.79297 v -4.79297 z m -56.83398,4.13086 v 4.79102 h 14.34766 v -4.79102 z m -47.00976,6.48438 v 4.79687 h 4.79101 v -4.79687 z m 103.84374,0 v 4.79687 h 4.79297 v -4.79687 z m -79.08398,36.70312 c -3.74943,0 -6.76758,3.01823 -6.76758,6.76758 v 20.47266 c 0,3.74934 3.01814,6.76757 6.76758,6.76757 h 0.83008 c 3.74949,0 6.76758,-3.01823 6.76758,-6.76757 v -20.47266 c 0,-3.74935 -3.01809,-6.76758 -6.76758,-6.76758 z m 16.0625,0 c -3.74944,0 -6.76758,3.01823 -6.76758,6.76758 v 20.47266 c 0,3.74934 3.01814,6.76757 6.76758,6.76757 h 0.83008 c 3.74949,0 6.76953,-3.01823 6.76953,-6.76757 v -20.47266 c 0,-3.74935 -3.02004,-6.76758 -6.76953,-6.76758 z m 105.29883,0 c -3.74944,0 -6.76758,3.01823 -6.76758,6.76758 v 20.47266 c 0,3.74934 3.01814,6.76757 6.76758,6.76757 H 492.5 c 3.74949,0 6.76758,-3.01823 6.76758,-6.76757 v -20.47266 c 0,-3.74935 -3.01809,-6.76758 -6.76758,-6.76758 z m -50.91406,0.0195 c -4.00194,0 -7.22461,2.91282 -7.22461,6.53321 v 4.91211 c 0,1.86681 1.04489,3.69707 2.45703,4.73046 -1.60074,1.06008 -2.45703,2.76562 -2.45703,4.57032 v 6.27344 c 0,3.48856 2.68007,7.17546 7.32422,7.17773 4.4669,0.003 7.125,-3.67894 7.125,-7.17773 v -6.27344 c 0,-1.8047 -0.90433,-3.56535 -2.46094,-4.57032 1.66138,-1.17222 2.46094,-2.86326 2.46094,-4.73046 v -4.91211 c 0,-3.62039 -3.22269,-6.53321 -7.22461,-6.53321 z m 34.59765,0.0137 c -3.96073,0 -7.26172,3.16034 -7.26172,7.12109 v 2.78125 h 4.81055 v -2.73438 c 0,-0.99018 0.65997,-2.35742 2.35742,-2.35742 1.46171,0 2.35742,0.99002 2.35742,2.35742 v 4.3379 c 0,2.49904 -0.94407,2.92382 -3.82031,2.92382 v 4.24219 c 3.112,0 3.82031,0.56682 3.82031,3.16016 v 4.80859 c 0,1.65031 -0.89571,2.6875 -2.35742,2.6875 -1.46169,0 -2.35742,-1.08294 -2.35742,-2.5918 v -2.5 h -4.81055 v 2.73438 c 0,5.28099 4.05624,7.16797 7.1211,7.16797 2.9234,0 4.7626,-1.31986 5.9414,-3.06446 0.99018,-1.4617 1.27149,-2.45251 1.27149,-6.88476 0,-4.76231 -4e-5,-5.84663 -2.97071,-7.68555 2.73481,-1.6503 2.97071,-2.40454 2.97071,-7.02539 0,-4.2908 -0.5648,-5.61224 -1.83789,-7.12109 -0.84874,-1.03734 -2.64104,-2.35742 -5.23438,-2.35742 z m -53.45117,0.29492 -4.79297,3.50976 v 5.08789 l 4.79297,-3.5625 v 28.53125 h 4.76563 v -33.5664 z m -103.875,0.004 -4.81445,3.54102 v 5.09961 l 4.81445,-3.54102 v 28.51953 h 4.81641 v -33.61914 z m 18.83399,0 -6.32618,16.9043 c -0.66105,1.79428 -0.89843,2.73933 -0.89843,6.89453 0,4.3913 0.18845,5.33458 1.13281,6.84571 1.27488,2.03038 3.44792,3.25781 6.04492,3.25781 2.64421,0 4.86413,-1.18036 6.0918,-3.25781 0.89714,-1.51099 1.08593,-2.45441 1.08593,-6.84571 0,-5.33565 -0.18914,-6.51578 -1.03906,-7.83789 -0.8027,-1.22767 -2.36062,-2.17383 -4.06055,-2.17383 -1.03879,0 -1.70073,0.18969 -2.03124,0.42578 l -0.0938,-0.0937 5.47657,-14.11914 z m 33.86132,4.33594 c 1.26792,0 2.28907,1.02137 2.28907,2.28906 v 19.88868 c 0,1.26768 -1.02115,2.28906 -2.28907,2.28906 -1.26789,0 -2.28711,-1.02138 -2.28711,-2.28906 v -19.88868 c 0,-1.26769 1.01922,-2.28906 2.28711,-2.28906 z m 16.0625,0 c 1.26792,0 2.28907,1.02137 2.28907,2.28906 v 19.88868 c 0,1.26768 -1.02115,2.28906 -2.28907,2.28906 -1.26789,0 -2.28711,-1.02138 -2.28711,-2.28906 v -19.88868 c 0,-1.26769 1.01922,-2.28906 2.28711,-2.28906 z m 105.30078,0 c 1.26792,0 2.28907,1.02137 2.28907,2.28906 v 19.88868 c 0,1.26768 -1.02115,2.28906 -2.28907,2.28906 -1.26789,0 -2.28715,-1.02138 -2.2871,-2.28906 v -19.88868 c 0,-1.26769 1.01921,-2.28906 2.2871,-2.28906 z m -51.3457,0.10742 c 1.33803,0 2.41602,1.07636 2.41602,2.41407 v 4.76562 c 0,1.33771 -1.07799,2.41602 -2.41602,2.41602 -1.33801,0 -2.41406,-1.07831 -2.41406,-2.41602 v -4.76562 c 0,-1.33771 1.07605,-2.41407 2.41406,-2.41407 z m -88.98047,9.38477 v 4.79297 h 4.79102 v -4.79297 z m 103.84375,0 v 4.79297 h 4.79297 v -4.79297 z m -14.86328,3.82422 c 1.33803,0 2.41602,1.07597 2.41602,2.41406 v 6.59766 c 0,1.33808 -1.07799,2.41601 -2.41602,2.41601 -1.33801,0 -2.41406,-1.07793 -2.41406,-2.41601 v -6.59766 c 0,-1.33809 1.07605,-2.41406 2.41406,-2.41406 z m -43.40625,0.30664 v 4.79101 h 14.34961 v -4.79101 z m -60.51953,0.0781 c 1.22767,0 2.36133,0.94443 2.36133,2.40821 v 6.23242 c 0,1.46376 -1.13366,2.4082 -2.36133,2.4082 -1.22768,0 -2.36133,-0.94444 -2.36133,-2.4082 v -6.23242 c 0,-1.46378 1.13365,-2.40821 2.36133,-2.40821 z m 14.94531,6.40625 v 4.79688 h 4.79102 v -4.79688 z m 103.84375,0 v 4.79688 h 4.79297 v -4.79688 z"
         transform="scale(0.75)" />
    </g>
    <path
       id="rect25717"
       style="opacity:1;fill:#000000;fill-rule:evenodd;stroke-width:5.49997;stroke-linejoin:round;paint-order:stroke fill markers"
       d="M -393.84278,385.44584 V 725.08949 H 143.16824 V 385.44584 Z m 8.23813,8.23361 h 520.53928 v 323.16728 h -520.53928 z" />
  </g>
</svg>
