<?xml version="1.0" encoding="UTF-8" standalone="no"?>
<svg
   xmlns:dc="http://purl.org/dc/elements/1.1/"
   xmlns:cc="http://creativecommons.org/ns#"
   xmlns:rdf="http://www.w3.org/1999/02/22-rdf-syntax-ns#"
   xmlns:svg="http://www.w3.org/2000/svg"
   xmlns="http://www.w3.org/2000/svg"
   xmlns:sodipodi="http://sodipodi.sourceforge.net/DTD/sodipodi-0.dtd"
   xmlns:inkscape="http://www.inkscape.org/namespaces/inkscape"
   width="468.22849mm"
   height="702mm"
   viewBox="0 0 468.22849 702"
   version="1.1"
   id="svg8"
   inkscape:version="1.0 (4035a4fb49, 2020-05-01)"
   sodipodi:docname="Vietnam_road_sign_R310c.svg">
  <defs
     id="defs2" />
  <sodipodi:namedview
     id="base"
     pagecolor="#ffffff"
     bordercolor="#666666"
     borderopacity="1.0"
     inkscape:pageopacity="0.0"
     inkscape:pageshadow="2"
     inkscape:zoom="0.15094818"
     inkscape:cx="2400.8345"
     inkscape:cy="1803.9494"
     inkscape:document-units="mm"
     inkscape:current-layer="layer1"
     showgrid="false"
     inkscape:window-width="1920"
     inkscape:window-height="1001"
     inkscape:window-x="-9"
     inkscape:window-y="-9"
     inkscape:window-maximized="1"
     inkscape:document-rotation="0" />
  <metadata
     id="metadata5">
    <rdf:RDF>
      <cc:Work
         rdf:about="">
        <dc:format>image/svg+xml</dc:format>
        <dc:type
           rdf:resource="http://purl.org/dc/dcmitype/StillImage" />
        <dc:title></dc:title>
      </cc:Work>
    </rdf:RDF>
  </metadata>
  <g
     inkscape:label="Layer 1"
     inkscape:groupmode="layer"
     id="layer1"
     transform="translate(-1689.5385,177.11194)">
    <path
       style="color:#000000;font-style:normal;font-variant:normal;font-weight:normal;font-stretch:normal;font-size:medium;line-height:normal;font-family:sans-serif;font-variant-ligatures:normal;font-variant-position:normal;font-variant-caps:normal;font-variant-numeric:normal;font-variant-alternates:normal;font-variant-east-asian:normal;font-feature-settings:normal;font-variation-settings:normal;text-indent:0;text-align:start;text-decoration:none;text-decoration-line:none;text-decoration-style:solid;text-decoration-color:#000000;letter-spacing:normal;word-spacing:normal;text-transform:none;writing-mode:lr-tb;direction:ltr;text-orientation:mixed;dominant-baseline:auto;baseline-shift:baseline;text-anchor:start;white-space:normal;shape-padding:0;shape-margin:0;inline-size:0;clip-rule:nonzero;display:inline;overflow:visible;visibility:visible;opacity:1;isolation:auto;mix-blend-mode:normal;color-interpolation:sRGB;color-interpolation-filters:linearRGB;solid-color:#000000;solid-opacity:1;vector-effect:none;fill:#000000;fill-opacity:1;fill-rule:evenodd;stroke:none;stroke-width:0.082;stroke-linecap:square;stroke-linejoin:miter;stroke-miterlimit:4;stroke-dasharray:none;stroke-dashoffset:0;stroke-opacity:1;paint-order:stroke fill markers;color-rendering:auto;image-rendering:auto;shape-rendering:auto;text-rendering:auto;enable-background:accumulate;stop-color:#000000;stop-opacity:1"
       d="m 1689.5385,-177.11194 v 0.62095 701.37904 h 468.2285 v -701.99999 z"
       id="path7079"
       sodipodi:nodetypes="cccccc" />
    <path
       style="color:#000000;font-style:normal;font-variant:normal;font-weight:normal;font-stretch:normal;font-size:medium;line-height:normal;font-family:sans-serif;font-variant-ligatures:normal;font-variant-position:normal;font-variant-caps:normal;font-variant-numeric:normal;font-variant-alternates:normal;font-variant-east-asian:normal;font-feature-settings:normal;font-variation-settings:normal;text-indent:0;text-align:start;text-decoration:none;text-decoration-line:none;text-decoration-style:solid;text-decoration-color:#000000;letter-spacing:normal;word-spacing:normal;text-transform:none;writing-mode:lr-tb;direction:ltr;text-orientation:mixed;dominant-baseline:auto;baseline-shift:baseline;text-anchor:start;white-space:normal;shape-padding:0;shape-margin:0;inline-size:0;clip-rule:nonzero;display:inline;overflow:visible;visibility:visible;opacity:1;isolation:auto;mix-blend-mode:normal;color-interpolation:sRGB;color-interpolation-filters:linearRGB;solid-color:#000000;solid-opacity:1;vector-effect:none;fill:#ffffff;fill-opacity:1;fill-rule:evenodd;stroke:none;stroke-width:0.082;stroke-linecap:square;stroke-linejoin:miter;stroke-miterlimit:4;stroke-dasharray:none;stroke-dashoffset:0;stroke-opacity:1;paint-order:stroke fill markers;color-rendering:auto;image-rendering:auto;shape-rendering:auto;text-rendering:auto;enable-background:accumulate;stop-color:#000000;stop-opacity:1"
       d="m 1690.1595,-176.49039 h 466.9851 V 524.2671 h -466.9851 z"
       id="path7081" />
    <path
       d="m 1816.8184,134.76732 v 10.6142 h 212.8373 v -10.6142 z m 6.4636,23.20161 c -3.3603,1.5e-4 -6.0652,2.70542 -6.0652,6.06562 v 14.6582 c 0,3.36036 2.7049,6.06548 6.0652,6.06548 h 4.043 c 3.3603,0 6.0666,-2.70512 6.0666,-6.06548 v -4.49851 h 74.7818 c 2.0763,2.81849 7.1657,4.80207 13.1497,4.80207 h 3.0326 c 5.984,0 11.0733,-1.98373 13.1497,-4.80207 h 75.9755 v 4.49851 c 0,3.36036 2.7048,6.06548 6.0652,6.06548 h 4.0444 c 3.3604,0 6.0652,-2.70512 6.0652,-6.06548 v -14.6582 c 0,-3.3605 -2.7048,-6.06562 -6.0652,-6.06562 h -4.0444 c -3.3604,0 -6.0652,2.70557 -6.0652,6.06562 v 4.49836 h -75.9755 c -2.0764,-2.81833 -7.1657,-4.80146 -13.1497,-4.80146 h -3.0326 c -5.984,0 -11.0734,1.98313 -13.1497,4.80146 h -74.7818 v -4.49836 c 0,-3.3605 -2.7063,-6.06577 -6.0666,-6.06562 z"
       style="opacity:1;fill:#000000;fill-opacity:1;fill-rule:nonzero;stroke:none;stroke-width:2.01683;stroke-linecap:round;stroke-linejoin:miter;stroke-miterlimit:10;stroke-dasharray:none;stroke-opacity:1;paint-order:stroke fill markers"
       id="rect23810"
       sodipodi:nodetypes="cccccssssssccssccssssssssccssccsss" />
    <path
       style="opacity:1;fill:#000000;fill-opacity:1;fill-rule:nonzero;stroke:none;stroke-width:2.70247;stroke-linecap:round;stroke-linejoin:miter;stroke-miterlimit:10;stroke-dasharray:none;stroke-opacity:1;paint-order:stroke fill markers"
       d="m 1816.6936,108.48351 v -217.34634 c 0,-11.76093 9.4676,-21.2293 21.2296,-21.2293 h 169.8323 c 11.762,0 21.2296,9.46822 21.2296,21.2293 v 217.34634 z"
       id="path825"
       inkscape:connector-curvature="0"
       sodipodi:nodetypes="csssscc" />
    <path
       sodipodi:nodetypes="csssscc"
       inkscape:connector-curvature="0"
       id="rect829"
       d="m 2027.9748,107.4727 v -216.33538 c 0,-11.20102 -9.0181,-20.21834 -20.2193,-20.21834 h -169.8323 c -11.2012,0 -20.2192,9.01747 -20.2192,20.21834 V 107.4727 Z"
       style="opacity:1;fill:#f8981e;fill-opacity:1;fill-rule:nonzero;stroke:none;stroke-width:2.25522;stroke-linecap:round;stroke-linejoin:miter;stroke-miterlimit:10;stroke-dasharray:none;stroke-opacity:1;paint-order:stroke fill markers" />
    <path
       d="m 1923.3814,243.89786 a 116.6191,116.6191 0 0 1 116.6185,116.61893 116.6191,116.6191 0 0 1 -116.6185,116.61923 116.6191,116.6191 0 0 1 -116.6185,-116.61923 116.6191,116.6191 0 0 1 116.6185,-116.61893 z m 53.0003,34.66484 v 11.90256 h -97.1043 c -14.0158,0 -25.3012,11.28492 -25.3012,25.30082 v 138.42604 h 23.7195 V 325.92096 c 0,-6.06382 4.5721,-11.12856 10.4704,-11.73582 h 88.2081 v 11.90256 l 35.7355,-23.69642 z"
       style="opacity:1;fill:#0046aa;fill-opacity:1;fill-rule:nonzero;stroke:none;stroke-width:315.814;stroke-linecap:round;stroke-linejoin:round;stroke-miterlimit:4;stroke-dasharray:none;stroke-opacity:1;paint-order:stroke fill markers"
       id="circle817-0-3" />
  </g>
</svg>
